<?xml version="1.0" standalone="no"?>
<!DOCTYPE svg PUBLIC "-//W3C//DTD SVG 1.1//EN" "http://www.w3.org/Graphics/SVG/1.1/DTD/svg11.dtd">
<svg width="324" height="324" version="1.1" xmlns="http://www.w3.org/2000/svg">
  <title>20 cells diameter theta maze</title>
  <desc>20 cells diameter theta maze generated by The Maze Generator Website (https://www.mazegenerator.net/).</desc>
  <g fill="none" stroke="#000000" stroke-width="2" stroke-linecap="square">
    <path d="M 147.39277423870973,241.46282243225843 A 80,80 0 1,1 163,243" />
    <path d="M 181.72867091354831,68.844613081289879 A 96,96 0 0,1 230.88225099390854,95.117749006091429" />
    <path d="M 259,163 A 96,96 0 0,1 242.82108278104437,216.33474236988178" />
    <path d="M 230.88225099390857,230.88225099390854 A 96,96 0 0,1 216.33474236988181,242.82108278104437" />
    <path d="M 163,259 A 96,96 0 0,1 144.27132908645169,257.15538691871012" />
    <path d="M 95.117749006091444,230.88225099390857 A 96,96 0 0,1 83.178917218955661,216.33474236988181" />
    <path d="M 74.3075648789165,199.73760950704866 A 96,96 0 0,1 68.844613081289879,181.72867091354834" />
    <path d="M 67,163.00000000000003 A 96,96 0 0,1 68.844613081289879,144.27132908645169" />
    <path d="M 83.178917218955633,109.66525763011822 A 96,96 0 0,1 95.117749006091429,95.117749006091458" />
    <path d="M 141.14988393419358,53.152048594838206 A 112,112 0 0,1 184.85011606580636,53.152048594838192" />
    <path d="M 205.86054442489007,59.525492358735889 A 112,112 0 0,1 256.12459657788509,100.77613390180454" />
    <path d="M 266.4745076412641,120.13945557510994 A 112,112 0 0,1 275,163" />
    <path d="M 256.12459657788509,225.22386609819543 A 112,112 0 0,1 163,275" />
    <path d="M 120.13945557510996,266.47450764126415 A 112,112 0 0,1 100.77613390180459,256.12459657788509" />
    <path d="M 69.875403422114928,225.22386609819546 A 112,112 0 0,1 59.5254923587359,205.86054442489012" />
    <path d="M 53.152048594838192,184.85011606580642 A 112,112 0 0,1 53.152048594838192,141.14988393419364" />
    <path d="M 59.525492358735889,120.13945557510992 A 112,112 0 0,1 69.8754034221149,100.7761339018046" />
    <path d="M 100.77613390180454,69.875403422114928 A 112,112 0 0,1 120.13945557510988,59.525492358735917" />
    <path d="M 114.01652065726843,44.743419838555326 A 128,128 0 0,1 163,35" />
    <path d="M 187.97156121806441,37.459484108386505 A 128,128 0 0,1 211.9834793427315,44.7434198385553" />
    <path d="M 234.11298982650908,56.57188962527421 A 128,128 0 0,1 253.50966799187808,72.490332008121911" />
    <path d="M 269.4281103747258,91.8870101734909 A 128,128 0 0,1 281.25658016144473,114.0165206572685" />
    <path d="M 288.5405158916135,138.02843878193556 A 128,128 0 0,1 281.25658016144473,211.98347934273147" />
    <path d="M 269.4281103747258,234.11298982650905 A 128,128 0 0,1 253.50966799187808,253.50966799187808" />
    <path d="M 234.11298982650908,269.4281103747258 A 128,128 0 0,1 163.00000000000003,291" />
    <path d="M 114.01652065726853,281.25658016144473 A 128,128 0 0,1 44.743419838555312,114.01652065726847" />
    <path d="M 56.571889625274181,91.887010173490964 A 128,128 0 0,1 91.887010173490921,56.57188962527421" />
    <path d="M 134.90699362967746,21.766919621934818 A 144,144 0 0,1 177.11446820745672,19.693399359203653" />
    <path d="M 204.80099352464259,25.200591654561919 A 144,144 0 0,1 243.0021135548227,43.268375828433477" />
    <path d="M 254.35263291956494,51.686494715765875 A 144,144 0 0,1 264.82337649086287,61.176623509137158" />
    <path d="M 274.31350528423411,71.647367080435046 A 144,144 0 0,1 289.99666206616314,95.118869897056314" />
    <path d="M 296.03865268162531,107.89358573942707 A 144,144 0 0,1 306.30660064079632,148.88553179254325" />
    <path d="M 306.30660064079632,177.11446820745672 A 144,144 0 0,1 300.79940834543811,204.80099352464256" />
    <path d="M 296.03865268162531,218.10641426057293 A 144,144 0 0,1 282.73162417156652,243.0021135548227" />
    <path d="M 274.31350528423411,254.35263291956494 A 144,144 0 0,1 218.10641426057293,296.03865268162531" />
    <path d="M 177.11446820745675,306.30660064079632 A 144,144 0 0,1 107.8935857394271,296.03865268162531" />
    <path d="M 95.118869897056342,289.99666206616314 A 144,144 0 0,1 82.997886445177329,282.73162417156652" />
    <path d="M 71.647367080435075,274.31350528423411 A 144,144 0 0,1 19,163.00000000000003" />
    <path d="M 25.200591654561919,121.19900647535746 A 144,144 0 0,1 36.003337933836875,95.118869897056356" />
    <path d="M 51.686494715765889,71.647367080435032 A 144,144 0 0,1 121.19900647535741,25.200591654561919" />
    <path d="M 178.68274245272968,3.7704437324484843 A 160,160 0 1,1 163,3" />
  </g>
  <g fill="none" stroke="#000000" stroke-width="2" stroke-linecap="butt">
    <line x1="163" y1="67" x2="163" y2="83" />
    <line x1="194.21445152258053" y1="6.0743551354831311" x2="181.72867091354831" y2="68.844613081289879" />
    <line x1="211.9834793427315" y1="44.7434198385553" x2="205.86054442489007" y2="59.525492358735889" />
    <line x1="251.89123728313635" y1="29.964862031592759" x2="243.0021135548227" y2="43.268375828433491" />
    <line x1="276.13708498984761" y1="49.862915010152392" x2="253.50966799187808" y2="72.490332008121911" />
    <line x1="282.73162417156652" y1="82.997886445177272" x2="256.12459657788509" y2="100.77613390180454" />
    <line x1="242.82108278104434" y1="109.66525763011818" x2="229.51756898420362" y2="118.55438135843181" />
    <line x1="310.82072520180589" y1="101.77065082158563" x2="296.03865268162531" y2="107.89358573942707" />
    <line x1="281.25658016144473" y1="114.0165206572685" x2="251.69243512108352" y2="126.26239049295137" />
    <line x1="304.23308037806521" y1="134.90699362967752" x2="288.5405158916135" y2="138.02843878193556" />
    <line x1="257.15538691871012" y1="144.27132908645169" x2="241.46282243225843" y2="147.39277423870973" />
    <line x1="307" y1="163" x2="291" y2="163" />
    <line x1="322.22955626755152" y1="178.68274245272971" x2="306.30660064079632" y2="177.11446820745672" />
    <line x1="288.5405158916135" y1="187.97156121806441" x2="257.15538691871012" y2="181.72867091354831" />
    <line x1="310.82072520180589" y1="224.22934917841434" x2="296.03865268162531" y2="218.10641426057293" />
    <line x1="281.25658016144473" y1="211.98347934273147" x2="266.4745076412641" y2="205.86054442489007" />
    <line x1="282.73162417156652" y1="243.0021135548227" x2="269.4281103747258" y2="234.11298982650905" />
    <line x1="286.6816725380379" y1="264.50292546618323" x2="274.31350528423411" y2="254.35263291956494" />
    <line x1="230.88225099390857" y1="230.88225099390854" x2="219.5685424949238" y2="219.5685424949238" />
    <line x1="205.86054442489007" y1="266.4745076412641" x2="199.73760950704863" y2="251.69243512108352" />
    <line x1="209.44554836071399" y1="316.1104537171534" x2="204.80099352464259" y2="300.79940834543811" />
    <line x1="194.21445152258059" y1="319.92564486451687" x2="187.97156121806447" y2="288.5405158916135" />
    <line x1="184.85011606580639" y1="272.84795140516178" x2="178.60722576129029" y2="241.46282243225843" />
    <line x1="163.00000000000003" y1="291" x2="163" y2="275" />
    <line x1="134.90699362967752" y1="304.23308037806521" x2="147.39277423870973" y2="241.46282243225843" />
    <line x1="107.8935857394271" y1="296.03865268162531" x2="120.13945557510996" y2="266.47450764126415" />
    <line x1="126.2623904929514" y1="251.69243512108352" x2="132.38532541079283" y2="236.91036260090294" />
    <line x1="87.576522107840376" y1="304.10740229573685" x2="95.118869897056342" y2="289.99666206616314" />
    <line x1="100.77613390180459" y1="256.12459657788509" x2="109.66525763011822" y2="242.82108278104437" />
    <line x1="61.497074533816757" y1="286.6816725380379" x2="71.647367080435089" y2="274.31350528423411" />
    <line x1="72.490332008121925" y1="253.5096679918781" x2="95.117749006091444" y2="230.88225099390857" />
    <line x1="44.743419838555326" y1="211.98347934273156" x2="59.5254923587359" y2="205.86054442489012" />
    <line x1="74.3075648789165" y1="199.73760950704866" x2="89.089637399097086" y2="193.61467458920723" />
    <line x1="53.152048594838206" y1="184.85011606580642" x2="68.844613081289893" y2="181.72867091354834" />
    <line x1="3.7704437324484843" y1="147.31725754727037" x2="19.693399359203653" y2="148.88553179254336" />
    <line x1="21.766919621934818" y1="134.90699362967752" x2="37.459484108386505" y2="138.02843878193556" />
    <line x1="53.152048594838192" y1="141.14988393419364" x2="68.844613081289879" y2="144.27132908645169" />
    <line x1="9.8895462828465668" y1="116.55445163928607" x2="25.200591654561919" y2="121.19900647535746" />
    <line x1="44.743419838555312" y1="114.01652065726847" x2="59.5254923587359" y2="120.13945557510992" />
    <line x1="74.30756487891648" y1="126.26239049295137" x2="89.089637399097072" y2="132.3853254107928" />
    <line x1="29.96486203159273" y1="74.108762716863708" x2="56.571889625274181" y2="91.887010173490964" />
    <line x1="69.875403422114914" y1="100.7761339018046" x2="83.178917218955633" y2="109.66525763011822" />
    <line x1="83.804040507106663" y1="83.804040507106691" x2="95.117749006091429" y2="95.117749006091458" />
    <line x1="91.887010173490921" y1="56.57188962527421" x2="109.66525763011819" y2="83.178917218955661" />
    <line x1="107.89358573942698" y1="29.961347318374749" x2="114.01652065726843" y2="44.743419838555326" />
    <line x1="126.26239049295133" y1="74.3075648789165" x2="132.38532541079277" y2="89.089637399097086" />
    <line x1="131.78554847741941" y1="6.0743551354831595" x2="134.90699362967746" y2="21.766919621934846" />
    <line x1="138.02843878193554" y1="37.459484108386519" x2="144.27132908645166" y2="68.844613081289893" />
  </g>
  <path fill="none" stroke="#ff0000" stroke-width="2" stroke-linecap="square" stroke-linejoin="round" d="M 170.85082789238689,3.1927270071724081 L 170.45828649776755,11.183090656813789 A 152,152 0 0,1 185.303032117215,12.645170485353305 L 182.95534452592921,28.471994644789788 A 136,136 0 0,0 129.95469553315607,31.075749565542026 L 126.06701265470385,15.555249514429335 A 152,152 0 0,0 40.912455214941915,72.4537057171502 L 53.763775718632246,81.984894589029125 A 136,136 0 0,1 98.890043791664283,43.058708048623743 L 106.43239158088025,57.169448278197422 A 120,120 0 0,1 128.1658387294645,48.167159712134946 L 132.81039356553589,63.478205083850284 A 104,104 0 0,0 113.97473937009622,71.280188507771086 L 121.51708715931218,85.390928737344765 A 88,88 0 0,0 107.17339099359916,94.975080104079183 L 86.8728059003625,70.2387455964716 A 120,120 0 0,0 57.169448278197393,106.43239158088029 L 43.058708048623714,98.890043791664326 A 136,136 0 0,0 31.075749565542026,129.95469553315613 L 15.555249514429306,126.06701265470392 A 152,152 0 0,0 12.645170485353305,140.69696788278498 L 28.471994644789788,143.04465547407077 A 136,136 0 0,0 104.85250729348167,285.94254386478832 L 98.011625798597166,300.40637255476338 A 152,152 0 0,0 185.303032117215,313.35482951464667 L 182.95534452592921,297.52800535521021 A 136,136 0 0,1 149.66966891517976,298.34512282741878 L 152.8062174057257,266.4992115739085 A 104,104 0 0,0 173.19378259427433,266.4992115739085 L 171.62550834900137,250.57625594715333 A 88,88 0 0,1 154.37449165099866,250.57625594715333 L 155.15862877363514,242.61477813377576" />
</svg>
