<?xml version="1.0" standalone="no"?>
<!DOCTYPE svg PUBLIC "-//W3C//DTD SVG 1.1//EN" "http://www.w3.org/Graphics/SVG/1.1/DTD/svg11.dtd">
<svg width="484" height="484" version="1.1" xmlns="http://www.w3.org/2000/svg">
  <title>30 cells diameter theta maze</title>
  <desc>30 cells diameter theta maze generated by The Maze Generator Website (https://www.mazegenerator.net/).</desc>
  <g fill="none" stroke="#000000" stroke-width="2" stroke-linecap="square">
    <path d="M 227.31725754727032,402.22955626755152 A 160,160 0 1,1 243.00000000000003,403" />
    <path d="M 225.74898330199736,67.847488105693344 A 176,176 0 0,1 243,67" />
    <path d="M 277.33589667483858,70.381790649031444 A 176,176 0 0,1 294.09010319678538,74.578500911131243" />
    <path d="M 310.3522840962558,80.397202278013538 A 176,176 0 0,1 354.65321801280163,106.95016020815828" />
    <path d="M 367.45079348883235,118.54920651116763 A 176,176 0 0,1 379.04983979184169,131.34678198719837" />
    <path d="M 389.33865176524796,145.21963898855 A 176,176 0 0,1 398.21814252531044,160.0341743186244" />
    <path d="M 405.60279772198646,175.6477159037442 A 176,176 0 0,1 415.61820935096853,208.66410332516142" />
    <path d="M 419,243 A 176,176 0 0,1 418.15251189430666,260.25101669800267" />
    <path d="M 415.61820935096853,277.33589667483858 A 176,176 0 0,1 405.60279772198646,310.3522840962558" />
    <path d="M 398.21814252531044,325.96582568137558 A 176,176 0 0,1 389.33865176524796,340.78036101144994" />
    <path d="M 340.78036101144994,389.33865176524796 A 176,176 0 0,1 325.96582568137563,398.21814252531044" />
    <path d="M 310.3522840962558,405.60279772198646 A 176,176 0 0,1 294.09010319678538,411.42149908886876" />
    <path d="M 277.33589667483864,415.61820935096853 A 176,176 0 0,1 225.74898330199733,418.15251189430666" />
    <path d="M 191.90989680321468,411.42149908886881 A 176,176 0 0,1 175.64771590374423,405.60279772198646" />
    <path d="M 131.34678198719843,379.04983979184175 A 176,176 0 0,1 70.381790649031444,277.33589667483864" />
    <path d="M 67.847488105693344,225.74898330199741 A 176,176 0 0,1 74.578500911131215,191.90989680321468" />
    <path d="M 80.397202278013538,175.64771590374414 A 176,176 0 0,1 106.95016020815831,131.34678198719837" />
    <path d="M 131.34678198719831,106.95016020815837 A 176,176 0 0,1 160.03417431862437,87.781857474689531" />
    <path d="M 191.90989680321459,74.578500911131243 A 176,176 0 0,1 208.66410332516134,70.381790649031444" />
    <path d="M 261.81929094327563,51.924532478938204 A 192,192 0 0,1 280.45734182709663,54.689226162579757" />
    <path d="M 364.80351055941992,94.58199295435449 A 192,192 0 0,1 391.41800704564548,121.19648944058005" />
    <path d="M 412.32888275488415,152.49182652940843 A 192,192 0 0,1 420.38487024216704,169.52478098590274" />
    <path d="M 431.31077383742024,205.54265817290337 A 192,192 0 0,1 435,243" />
    <path d="M 434.0754675210618,261.81929094327563 A 192,192 0 0,1 431.31077383742024,280.45734182709663" />
    <path d="M 426.73254446058411,298.73465803285671 A 192,192 0 0,1 412.32888275488415,333.50817347059154" />
    <path d="M 402.64216556208874,349.66948473976356 A 192,192 0 0,1 364.80351055941992,391.41800704564548" />
    <path d="M 333.5081734705916,412.32888275488415 A 192,192 0 0,1 316.47521901409726,420.38487024216704" />
    <path d="M 280.45734182709668,431.31077383742024 A 192,192 0 0,1 59.267455539415892,298.73465803285677" />
    <path d="M 51,243.00000000000003 A 192,192 0 0,1 65.61512975783296,169.52478098590274" />
    <path d="M 73.671117245115823,152.49182652940846 A 192,192 0 0,1 83.357834437911265,136.33051526023644" />
    <path d="M 94.581992954354519,121.19648944058005 A 192,192 0 0,1 121.19648944057998,94.581992954354575" />
    <path d="M 152.4918265294084,73.671117245115852 A 192,192 0 0,1 187.2653419671432,59.267455539415892" />
    <path d="M 205.54265817290329,54.689226162579757 A 192,192 0 0,1 224.18070905672437,51.924532478938204" />
    <path d="M 222.61243481145141,36.001576852183035 A 208,208 0 0,1 358.55860846807724,70.054320641070575" />
    <path d="M 374.95380310603826,82.2138257005507 A 208,208 0 0,1 390.07821048680188,95.921789513198121" />
    <path d="M 403.78617429944927,111.04619689396174 A 208,208 0 0,1 415.9456793589294,127.44139153192273" />
    <path d="M 426.43962298445786,144.94947874019246 A 208,208 0 0,1 442.04358983229946,182.62078713107184" />
    <path d="M 447.00333832387196,283.57878697935467 A 208,208 0 0,1 442.04358983229946,303.37921286892811" />
    <path d="M 426.43962298445786,341.05052125980751 A 208,208 0 0,1 415.94567935892945,358.55860846807718" />
    <path d="M 358.55860846807724,415.9456793589294 A 208,208 0 0,1 303.37921286892816,442.0435898322994" />
    <path d="M 263.38756518854865,449.99842314781694 A 208,208 0 0,1 222.61243481145141,449.998423147817" />
    <path d="M 202.4212130206453,447.00333832387196 A 208,208 0 0,1 182.62078713107189,442.04358983229946" />
    <path d="M 144.94947874019249,426.43962298445786 A 208,208 0 0,1 127.4413915319228,415.94567935892945" />
    <path d="M 111.04619689396179,403.78617429944933 A 208,208 0 0,1 50.833057237652412,322.59815393193878" />
    <path d="M 43.956410167700568,303.37921286892816 A 208,208 0 0,1 38.99666167612807,283.57878697935473" />
    <path d="M 36.001576852183035,263.38756518854859 A 208,208 0 0,1 36.001576852183035,222.61243481145149" />
    <path d="M 50.833057237652383,163.40184606806128 A 208,208 0 0,1 59.560377015542144,144.94947874019249" />
    <path d="M 82.213825700550728,111.04619689396171 A 208,208 0 0,1 144.94947874019243,59.560377015542173" />
    <path d="M 221.04416056617845,20.078621225427895 A 224,224 0 0,1 264.95583943382155,20.078621225427895" />
    <path d="M 286.70023213161272,23.304097189676384 A 224,224 0 0,1 348.59286904902348,45.449636785968465" />
    <path d="M 367.44773219639092,56.750806844229857 A 224,224 0 0,1 385.10409565265661,69.84565844674691" />
    <path d="M 401.39191898578667,84.608081014213354 A 224,224 0 0,1 467,243" />
    <path d="M 457.35463520401481,308.0237677049995 A 224,224 0 0,1 449.94901528252825,328.72108884978007" />
    <path d="M 401.39191898578667,401.39191898578662 A 224,224 0 0,1 367.44773219639086,429.24919315577017" />
    <path d="M 328.72108884978013,449.94901528252819 A 224,224 0 0,1 286.70023213161278,462.69590281032362" />
    <path d="M 243.00000000000003,467 A 224,224 0 0,1 199.29976786838725,462.69590281032362" />
    <path d="M 157.27891115021993,449.94901528252825 A 224,224 0 0,1 137.40713095097652,440.55036321403156" />
    <path d="M 118.55226780360917,429.24919315577017 A 224,224 0 0,1 56.750806844229857,367.44773219639092" />
    <path d="M 36.050984717471806,328.72108884978024 A 224,224 0 0,1 28.645364795985216,308.02376770499961" />
    <path d="M 23.304097189676384,286.70023213161284 A 224,224 0 0,1 20.078621225427895,264.95583943382155" />
    <path d="M 20.078621225427895,221.04416056617853 A 224,224 0 0,1 28.645364795985188,177.9762322950005" />
    <path d="M 56.7508068442298,118.55226780360918 A 224,224 0 0,1 69.845658446746938,100.89590434734339" />
    <path d="M 84.608081014213326,84.608081014213383 A 224,224 0 0,1 100.8959043473433,69.845658446747" />
    <path d="M 137.40713095097647,45.449636785968522 A 224,224 0 0,1 157.27891115021976,36.050984717471835" />
    <path d="M 266.52411367909457,4.1556655986727549 A 240,240 0 1,1 243,3" />
  </g>
  <g fill="none" stroke="#000000" stroke-width="2" stroke-linecap="butt">
    <line x1="243" y1="3" x2="243" y2="19" />
    <line x1="243" y1="51" x2="243" y2="67" />
    <line x1="264.95583943382155" y1="20.078621225427895" x2="263.38756518854859" y2="36.001576852183035" />
    <line x1="261.81929094327563" y1="51.924532478938204" x2="258.68274245272971" y2="83.770443732448484" />
    <line x1="289.82167728387077" y1="7.6115327032246967" x2="286.70023213161272" y2="23.304097189676384" />
    <line x1="303.37921286892816" y1="43.956410167700568" x2="298.73465803285677" y2="59.267455539415892" />
    <line x1="294.09010319678538" y1="74.578500911131243" x2="289.445548360714" y2="89.8895462828466" />
    <line x1="316.47521901409721" y1="65.61512975783296" x2="310.3522840962558" y2="80.397202278013538" />
    <line x1="341.05052125980751" y1="59.560377015542144" x2="333.50817347059154" y2="73.671117245115823" />
    <line x1="376.33685592470454" y1="43.447293047389138" x2="367.44773219639092" y2="56.750806844229857" />
    <line x1="358.55860846807724" y1="70.0543206410706" x2="340.78036101145" y2="96.66134823475204" />
    <line x1="385.10409565265661" y1="69.84565844674691" x2="364.80351055941992" y2="94.58199295435449" />
    <line x1="354.65321801280163" y1="106.95016020815828" x2="344.50292546618329" y2="119.31832746196209" />
    <line x1="416.15434155325306" y1="100.89590434734342" x2="403.78617429944927" y2="111.04619689396174" />
    <line x1="391.41800704564548" y1="121.19648944058007" x2="379.04983979184169" y2="131.3467819871984" />
    <line x1="415.9456793589294" y1="127.44139153192272" x2="376.03513796840724" y2="154.10876271686362" />
    <line x1="426.43962298445786" y1="144.94947874019246" x2="412.32888275488415" y2="152.49182652940843" />
    <line x1="442.04358983229946" y1="182.62078713107184" x2="411.42149908886881" y2="191.90989680321462" />
    <line x1="447.00333832387196" y1="202.4212130206453" x2="431.31077383742024" y2="205.54265817290337" />
    <line x1="415.61820935096853" y1="208.66410332516142" x2="399.92564486451687" y2="211.78554847741947" />
    <line x1="465.92137877457208" y1="221.04416056617839" x2="449.99842314781694" y2="222.61243481145135" />
    <line x1="434.0754675210618" y1="224.18070905672434" x2="418.1525118943066" y2="225.7489833019973" />
    <line x1="467" y1="243" x2="435" y2="243" />
    <line x1="481.84433440132727" y1="266.52411367909457" x2="418.15251189430666" y2="260.25101669800267" />
    <line x1="462.69590281032362" y1="286.70023213161272" x2="431.31077383742024" y2="280.45734182709663" />
    <line x1="472.66568057573011" y1="312.66832254107089" x2="457.35463520401481" y2="308.0237677049995" />
    <line x1="426.73254446058411" y1="298.73465803285671" x2="411.42149908886881" y2="294.09010319678532" />
    <line x1="449.94901528252819" y1="328.72108884978013" x2="420.38487024216704" y2="316.47521901409721" />
    <line x1="440.55036321403156" y1="348.59286904902348" x2="412.32888275488415" y2="333.50817347059154" />
    <line x1="398.2181425253105" y1="325.96582568137558" x2="384.10740229573685" y2="318.42347789215967" />
    <line x1="442.55270695261095" y1="376.33685592470448" x2="429.24919315577017" y2="367.4477321963908" />
    <line x1="402.64216556208874" y1="349.66948473976356" x2="389.33865176524796" y2="340.78036101144994" />
    <line x1="416.15434155325312" y1="385.10409565265655" x2="379.04983979184169" y2="354.65321801280157" />
    <line x1="412.70562748477141" y1="412.70562748477141" x2="390.07821048680194" y2="390.07821048680188" />
    <line x1="367.45079348883235" y1="367.45079348883235" x2="356.13708498984761" y2="356.13708498984761" />
    <line x1="374.95380310603826" y1="403.78617429944927" x2="354.65321801280163" y2="379.04983979184169" />
    <line x1="367.44773219639092" y1="429.24919315577017" x2="340.78036101145" y2="389.33865176524796" />
    <line x1="356.1352168382395" y1="454.66110344360516" x2="348.59286904902353" y2="440.55036321403151" />
    <line x1="333.5081734705916" y1="412.32888275488415" x2="325.96582568137563" y2="398.21814252531044" />
    <line x1="308.02376770499956" y1="457.35463520401481" x2="294.09010319678538" y2="411.42149908886876" />
    <line x1="283.57878697935473" y1="447.00333832387196" x2="277.33589667483864" y2="415.61820935096853" />
    <line x1="266.52411367909463" y1="481.84433440132727" x2="263.38756518854865" y2="449.99842314781694" />
    <line x1="221.04416056617842" y1="465.92137877457208" x2="222.61243481145141" y2="449.998423147817" />
    <line x1="205.54265817290337" y1="431.31077383742024" x2="211.78554847741947" y2="399.92564486451687" />
    <line x1="173.33167745892911" y1="472.66568057573011" x2="182.62078713107189" y2="442.04358983229946" />
    <line x1="157.27891115021993" y1="449.94901528252825" x2="175.6477159037442" y2="405.60279772198646" />
    <line x1="160.03417431862442" y1="398.2181425253105" x2="167.57652210784039" y2="384.10740229573685" />
    <line x1="118.55226780360917" y1="429.24919315577017" x2="136.33051526023644" y2="402.64216556208874" />
    <line x1="145.21963898855006" y1="389.33865176524796" x2="154.10876271686368" y2="376.0351379684073" />
    <line x1="31.338896556394815" y1="356.1352168382395" x2="59.560377015542173" y2="341.05052125980757" />
    <line x1="13.334319424269893" y1="312.668322541071" x2="43.956410167700568" y2="303.37921286892816" />
    <line x1="38.9966616761281" y1="283.57878697935473" x2="70.381790649031473" y2="277.33589667483864" />
    <line x1="20.078621225427895" y1="264.95583943382155" x2="83.770443732448484" y2="258.68274245272966" />
    <line x1="3" y1="243.00000000000006" x2="19" y2="243.00000000000003" />
    <line x1="51" y1="243.00000000000003" x2="67" y2="243.00000000000003" />
    <line x1="67.847488105693344" y1="225.74898330199741" x2="83.770443732448484" y2="227.31725754727037" />
    <line x1="38.99666167612807" y1="202.42121302064533" x2="54.689226162579757" y2="205.54265817290337" />
    <line x1="28.645364795985188" y1="177.9762322950005" x2="59.267455539415892" y2="187.26534196714329" />
    <line x1="36.050984717471806" y1="157.27891115021984" x2="50.833057237652383" y2="163.40184606806128" />
    <line x1="65.61512975783296" y1="169.52478098590274" x2="95.179274798194143" y2="181.77065082158561" />
    <line x1="31.338896556394786" y1="129.86478316176059" x2="59.560377015542144" y2="144.94947874019249" />
    <line x1="56.750806844229828" y1="118.55226780360918" x2="83.357834437911265" y2="136.33051526023644" />
    <line x1="69.845658446746938" y1="100.89590434734339" x2="82.213825700550728" y2="111.04619689396171" />
    <line x1="94.581992954354519" y1="121.19648944058005" x2="106.95016020815831" y2="131.34678198719837" />
    <line x1="73.294372515228559" y1="73.294372515228645" x2="84.608081014213326" y2="84.608081014213383" />
    <line x1="118.54920651116761" y1="118.54920651116767" x2="129.86291501015236" y2="129.86291501015242" />
    <line x1="109.66314407529546" y1="43.447293047389138" x2="145.21963898855" y2="96.66134823475204" />
    <line x1="157.27891115021976" y1="36.050984717471806" x2="181.77065082158555" y2="95.179274798194172" />
    <line x1="173.331677458929" y1="13.334319424269893" x2="182.62078713107181" y2="43.956410167700568" />
    <line x1="199.29976786838716" y1="23.304097189676412" x2="208.66410332516134" y2="70.381790649031473" />
    <line x1="222.61243481145141" y1="36.001576852183035" x2="224.18070905672437" y2="51.924532478938204" />
    <line x1="225.74898330199736" y1="67.847488105693344" x2="227.31725754727032" y2="83.770443732448484" />
  </g>
  <path fill="none" stroke="#ff0000" stroke-width="2" stroke-linecap="square" stroke-linejoin="round" d="M 235.14917210761317,402.80727299282762 L 234.75663071299383,410.797636642469 A 168,168 0 0,0 343.07748315472884,377.93886528874833 L 371.67104977036564,416.49282679981928 A 216,216 0 0,0 388.056734246956,403.04544307667112 L 377.31179096940372,391.1902250709918 A 200,200 0 0,0 391.1902250709918,377.31179096940366 L 414.9006610823505,398.80167752450825 A 232,232 0 0,0 429.34414730350966,381.20223864224454 L 403.641506296129,362.13986089848663 A 200,200 0 0,0 414.54572200005441,345.8205488386443 L 400.82206424005005,337.59490493155278 A 184,184 0 0,0 409.33402993471361,321.67013719117188 L 394.8702012447385,314.82925569628736 A 168,168 0 0,0 410.797636642469,234.75663071299374 L 426.77836394175171,233.97154792375505 A 184,184 0 0,1 426.77836394175171,252.02845207624492 L 474.7205458396,254.38370044396098 A 232,232 0 0,0 398.80167752450825,71.099338917649476 L 388.05673424695595,82.954556923328823 A 216,216 0 0,1 403.04544307667118,97.943265753044017 L 391.1902250709918,108.68820903059631 A 200,200 0 0,1 403.64150629612897,123.86013910151331 L 377.93886528874833,142.92251684527119 A 168,168 0 0,0 355.82190441429907,118.52021094036687 L 366.56684769185136,106.66499293468752 A 184,184 0 0,0 352.60867202660774,95.209814207561351 L 371.67104977036558,69.507173200180716 A 216,216 0 0,0 274.69378248235813,29.337873847607312 L 277.04147007364395,13.5110496881708 A 232,232 0 0,0 254.38370044396098,11.279454160400007 L 254.77624183858032,3.2890905107586264" />
</svg>
