<?xml version="1.0" standalone="no"?>
<!DOCTYPE svg PUBLIC "-//W3C//DTD SVG 1.1//EN" "http://www.w3.org/Graphics/SVG/1.1/DTD/svg11.dtd">
<svg width="644" height="644" version="1.1" xmlns="http://www.w3.org/2000/svg">
  <title>40 cells diameter theta maze</title>
  <desc>40 cells diameter theta maze generated by The Maze Generator Website (https://www.mazegenerator.net/).</desc>
  <g fill="none" stroke="#000000" stroke-width="2" stroke-linecap="square">
    <path d="M 299.47588632090549,561.84433440132727 A 240,240 0 1,1 323.00000000000006,563" />
    <path d="M 297.90761207563253,68.232709971917586 A 256,256 0 0,1 348.09238792436753,68.232709971917586" />
    <path d="M 397.31287737714234,78.023274052554541 A 256,256 0 0,1 443.67756462745541,97.228156326821107" />
    <path d="M 504.01933598375615,141.98066401624382 A 256,256 0 0,1 535.85622074945161,180.77402034698181" />
    <path d="M 567.97672594744552,248.68712262285766 A 256,256 0 0,1 579,323" />
    <path d="M 574.081031783227,372.94312243612882 A 256,256 0 0,1 567.97672594744552,397.31287737714229" />
    <path d="M 548.77184367317886,443.67756462745541 A 256,256 0 0,1 535.85622074945161,465.2259796530181" />
    <path d="M 520.89067606086064,485.40468074589319 A 256,256 0 0,1 485.40468074589324,520.89067606086064" />
    <path d="M 465.22597965301816,535.85622074945161 A 256,256 0 0,1 443.67756462745547,548.77184367317886" />
    <path d="M 420.966958685463,559.51316032288946 A 256,256 0 0,1 397.3128773771424,567.9767259474454" />
    <path d="M 372.94312243612893,574.081031783227 A 256,256 0 0,1 297.90761207563247,577.76729002808247" />
    <path d="M 273.05687756387113,574.081031783227 A 256,256 0 0,1 248.68712262285771,567.97672594744552" />
    <path d="M 225.03304131453706,559.51316032288946 A 256,256 0 0,1 202.32243537254459,548.77184367317886" />
    <path d="M 160.59531925410681,520.89067606086064 A 256,256 0 0,1 125.10932393913942,485.40468074589336" />
    <path d="M 97.228156326821136,443.67756462745547 A 256,256 0 0,1 86.486839677110652,420.96695868546311" />
    <path d="M 78.023274052554541,397.3128773771424 A 256,256 0 0,1 71.918968216773038,372.94312243612893" />
    <path d="M 68.232709971917586,348.09238792436747 A 256,256 0 0,1 67,323.00000000000006" />
    <path d="M 68.232709971917586,297.90761207563264 A 256,256 0 0,1 97.228156326821107,202.32243537254462" />
    <path d="M 125.10932393913936,160.59531925410673 A 256,256 0 0,1 160.59531925410664,125.10932393913942" />
    <path d="M 202.32243537254453,97.228156326821164 A 256,256 0 0,1 273.05687756387107,71.918968216773038" />
    <path d="M 323,51 A 272,272 0 0,1 349.66066216964049,52.309754345162446" />
    <path d="M 376.06456758838686,56.226403730321294 A 272,272 0 0,1 414.63404012268387,66.900014270218321" />
    <path d="M 427.0898936033044,71.704767156929989 A 272,272 0 0,1 439.29498541303673,77.114912270423417" />
    <path d="M 451.21991241667138,83.117416097247428 A 272,272 0 0,1 462.8359464205563,89.69781807992598" />
    <path d="M 485.03021082194186,104.52755143726458 A 272,272 0 0,1 505.66403571838896,121.46129390345112" />
    <path d="M 533.25884331466443,150.44502670748841 A 272,272 0 0,1 541.47244856273539,160.96978917805811" />
    <path d="M 549.15973454629227,171.88489661866819 A 272,272 0 0,1 562.88258390275257,194.78008758332859" />
    <path d="M 568.88508772957653,206.70501458696324 A 272,272 0 0,1 579.09998572978168,231.36595987731613" />
    <path d="M 583.28777131916081,244.04256778678627 A 272,272 0 0,1 586.848500868916,256.9093910663122" />
    <path d="M 589.77359626967871,269.93543241161308 A 272,272 0 0,1 592.05601071042042,283.08931094814159" />
    <path d="M 593.69024565483755,296.33933783035945 A 272,272 0 0,1 592.05601071042042,362.91068905185836" />
    <path d="M 589.77359626967871,376.06456758838686 A 272,272 0 0,1 586.848500868916,389.0906089336878" />
    <path d="M 583.28777131916081,401.95743221321374 A 272,272 0 0,1 562.88258390275257,451.21991241667138" />
    <path d="M 556.302181920074,462.8359464205563 A 272,272 0 0,1 533.25884331466455,495.55497329251153" />
    <path d="M 524.53870609654882,505.664035718389 A 272,272 0 0,1 427.08989360330446,574.29523284306993" />
    <path d="M 414.63404012268393,579.09998572978157 A 272,272 0 0,1 401.95743221321379,583.28777131916081" />
    <path d="M 389.0906089336878,586.848500868916 A 272,272 0 0,1 349.66066216964055,593.69024565483755" />
    <path d="M 336.34640741705766,594.672364087807 A 272,272 0 0,1 323.00000000000006,595" />
    <path d="M 296.33933783035951,593.69024565483755 A 272,272 0 0,1 183.16405357944373,556.302181920074" />
    <path d="M 171.88489661866828,549.15973454629238 A 272,272 0 0,1 150.44502670748847,533.25884331466455" />
    <path d="M 140.33596428161098,524.53870609654882 A 272,272 0 0,1 130.66695551725911,515.33304448274089" />
    <path d="M 121.46129390345118,505.66403571838907 A 272,272 0 0,1 66.900014270218321,414.63404012268381" />
    <path d="M 59.151499131084051,389.0906089336878 A 272,272 0 0,1 51.3276359121931,336.34640741705772" />
    <path d="M 51,323.00000000000006 A 272,272 0 0,1 52.309754345162446,296.33933783035968" />
    <path d="M 53.943989289579577,283.08931094814153 A 272,272 0 0,1 71.704767156930018,218.91010639669554" />
    <path d="M 83.117416097247428,194.78008758332865 A 272,272 0 0,1 112.74115668533557,150.44502670748841" />
    <path d="M 121.46129390345112,140.335964281611 A 272,272 0 0,1 206.70501458696316,77.114912270423474" />
    <path d="M 231.36595987731616,66.900014270218321 A 272,272 0 0,1 283.08931094814142,53.943989289579577" />
    <path d="M 296.33933783035957,52.309754345162446 A 272,272 0 0,1 309.65359258294228,51.3276359121931" />
    <path d="M 308.86850979370359,35.34690861291034 A 288,288 0 0,1 406.60198704928519,47.401183309123837" />
    <path d="M 446.13586690792124,62.6510835804483 A 288,288 0 0,1 458.76226020588729,69.006675867673749" />
    <path d="M 471.06159032764788,75.974160319921623 A 288,288 0 0,1 483.0042271096454,83.536751656866954" />
    <path d="M 505.70526583912988,100.37298943153175 A 288,288 0 0,1 562.463248343133,162.99577289035454" />
    <path d="M 576.99332413232628,187.23773979411263 A 288,288 0 0,1 583.34891641955164,199.86413309207873" />
    <path d="M 589.07730536325062,212.78717147885413 A 288,288 0 0,1 598.59881669087622,239.39801295071487" />
    <path d="M 602.36900092002861,253.02170818785999 A 288,288 0 0,1 605.46616075613042,266.81398725935503" />
    <path d="M 607.88283486985688,280.74162335685583 A 288,288 0 0,1 610.65309138708972,308.86850979370359" />
    <path d="M 607.88283486985688,365.25837664314417 A 288,288 0 0,1 598.59881669087622,406.60198704928513" />
    <path d="M 589.07730536325062,433.21282852114587 A 288,288 0 0,1 576.99332413232628,458.76226020588734" />
    <path d="M 562.463248343133,483.0042271096454 A 288,288 0 0,1 536.3939241022282,516.40897899594131" />
    <path d="M 526.64675298172574,526.64675298172563 A 288,288 0 0,1 505.70526583912988,545.62701056846822" />
    <path d="M 483.0042271096454,562.463248343133 A 288,288 0 0,1 458.7622602058874,576.99332413232628" />
    <path d="M 433.21282852114587,589.07730536325062 A 288,288 0 0,1 420.02427777695948,594.16469077271" />
    <path d="M 392.97829181214,602.36900092002861 A 288,288 0 0,1 365.25837664314417,607.88283486985688" />
    <path d="M 323.00000000000006,611 A 288,288 0 0,1 294.77106358508655,609.61320128159264" />
    <path d="M 266.81398725935503,605.46616075613042 A 288,288 0 0,1 253.02170818786,602.36900092002861" />
    <path d="M 174.93840967235218,570.02583968007843 A 288,288 0 0,1 162.99577289035466,562.463248343133" />
    <path d="M 151.43860030617921,554.32376906642571 A 288,288 0 0,1 129.59102100405869,536.3939241022282" />
    <path d="M 119.35324701827435,526.64675298172574 A 288,288 0 0,1 100.37298943153184,505.70526583913" />
    <path d="M 91.676230933574232,494.56139969382076 A 288,288 0 0,1 75.974160319921651,471.06159032764788" />
    <path d="M 62.651083580448358,446.13586690792135 A 288,288 0 0,1 47.401183309123837,406.60198704928519" />
    <path d="M 40.533839243869636,379.18601274064508 A 288,288 0 0,1 35.34690861291034,337.13149020629641" />
    <path d="M 36.386798718407306,294.77106358508672 A 288,288 0 0,1 38.117165130143064,280.74162335685577" />
    <path d="M 40.533839243869636,266.81398725935503 A 288,288 0 0,1 51.83530922729,225.97572222304075" />
    <path d="M 56.922694636749441,212.78717147885408 A 288,288 0 0,1 62.651083580448358,199.86413309207873" />
    <path d="M 75.9741603199216,174.93840967235221 A 288,288 0 0,1 83.5367516568669,162.99577289035466" />
    <path d="M 100.37298943153178,140.29473416087006 A 288,288 0 0,1 109.60607589777177,129.59102100405872" />
    <path d="M 119.35324701827426,119.35324701827435 A 288,288 0 0,1 129.59102100405863,109.60607589777186" />
    <path d="M 151.43860030617924,91.676230933574232 A 288,288 0 0,1 212.78717147885396,56.9226946367495" />
    <path d="M 253.02170818785993,43.630999079971332 A 288,288 0 0,1 294.77106358508655,36.386798718407306" />
    <path d="M 352.79721066018641,20.463843091652166 A 304,304 0 0,1 382.307457892903,24.841274757417921" />
    <path d="M 396.86597469059222,28.110499028858612 A 304,304 0 0,1 411.24654188535658,32.090137937408485" />
    <path d="M 425.41451543123492,36.770604184361673 A 304,304 0 0,1 479.28723423473934,62.250502559917265" />
    <path d="M 504.09258856569977,78.824910429883943 A 304,304 0 0,1 527.15392227349355,97.750857892092426" />
    <path d="M 537.96046148071048,108.03953851928955 A 304,304 0 0,1 575.76676213997371,154.10664916204092" />
    <path d="M 591.10406436189987,179.69539200489666 A 304,304 0 0,1 603.85937788343119,206.6642365610127" />
    <path d="M 613.90986206259151,234.75345811464348 A 304,304 0 0,1 623.70965902929333,278.39393576557" />
    <path d="M 626.63381868637248,308.08342700446491 A 304,304 0 0,1 626.63381868637248,337.91657299553509" />
    <path d="M 625.53615690834783,352.79721066018647 A 304,304 0 0,1 621.158725242582,382.30745789290296" />
    <path d="M 597.81274510952676,452.9767484028057 A 304,304 0 0,1 575.76676213997382,491.893350837959" />
    <path d="M 557.99517782227213,515.85555838574817 A 304,304 0 0,1 527.15392227349366,548.24914210790757" />
    <path d="M 515.85555838574828,557.995177822272 A 304,304 0 0,1 504.09258856569977,567.175089570116" />
    <path d="M 479.28723423473946,583.74949744008268 A 304,304 0 0,1 452.97674840280575,597.81274510952676" />
    <path d="M 439.33576343898733,603.85937788343108 A 304,304 0 0,1 396.86597469059228,617.88950097114139" />
    <path d="M 293.20278933981359,625.53615690834783 A 304,304 0 0,1 179.69539200489672,591.10406436189987" />
    <path d="M 154.106649162041,575.76676213997382 A 304,304 0 0,1 141.90741143430029,567.175089570116" />
    <path d="M 118.84607772650639,548.24914210790757 A 304,304 0 0,1 97.750857892092512,527.15392227349366" />
    <path d="M 88.004822177728045,515.85555838574828 A 304,304 0 0,1 70.233237860026236,491.893350837959" />
    <path d="M 48.1872548904733,452.97674840280587 A 304,304 0 0,1 42.14062211656892,439.33576343898744" />
    <path d="M 36.770604184361673,425.41451543123486 A 304,304 0 0,1 28.110499028858669,396.86597469059228" />
    <path d="M 20.463843091652166,352.79721066018635 A 304,304 0 0,1 19.366181313627578,308.083427004465" />
    <path d="M 20.463843091652109,293.20278933981376 A 304,304 0 0,1 24.841274757417921,263.692542107097" />
    <path d="M 48.187254890473241,193.02325159719422 A 304,304 0 0,1 54.89593563810007,179.69539200489675" />
    <path d="M 97.750857892092426,118.84607772650642 A 304,304 0 0,1 108.03953851928949,108.03953851928961" />
    <path d="M 130.14444161425163,88.004822177728073 A 304,304 0 0,1 179.69539200489663,54.895935638100127" />
    <path d="M 206.6642365610125,42.14062211656892 A 304,304 0 0,1 220.58548456876511,36.770604184361673" />
    <path d="M 234.75345811464342,32.090137937408542 A 304,304 0 0,1 308.08342700446491,19.366181313627578" />
    <path d="M 338.70165578477378,3.3854540143448162 A 320,320 0 1,1 323,3" />
  </g>
  <g fill="none" stroke="#000000" stroke-width="2" stroke-linecap="butt">
    <line x1="323" y1="3" x2="323" y2="19" />
    <line x1="323" y1="35" x2="323" y2="51" />
    <line x1="338.70165578477378" y1="3.3854540143448162" x2="337.13149020629641" y2="35.34690861291034" />
    <line x1="348.09238792436753" y1="68.232709971917586" x2="346.52411367909457" y2="84.155665598672726" />
    <line x1="365.25837664314417" y1="38.117165130143064" x2="362.91068905185841" y2="53.943989289579577" />
    <line x1="382.307457892903" y1="24.841274757417978" x2="379.18601274064491" y2="40.533839243869636" />
    <line x1="376.06456758838686" y1="56.226403730321294" x2="372.94312243612882" y2="71.91896821677301" />
    <line x1="415.89109672142797" y1="16.77909256569319" x2="411.24654188535658" y2="32.090137937408542" />
    <line x1="401.95743221321374" y1="62.712228680839189" x2="392.66832254107095" y2="93.334319424269893" />
    <line x1="425.41451543123492" y1="36.770604184361673" x2="414.63404012268387" y2="66.900014270218321" />
    <line x1="433.21282852114587" y1="56.922694636749441" x2="427.0898936033044" y2="71.704767156930018" />
    <line x1="446.13586690792124" y1="62.6510835804483" x2="439.29498541303673" y2="77.114912270423417" />
    <line x1="466.30460799510331" y1="54.89593563810007" x2="458.76226020588729" y2="69.006675867673749" />
    <line x1="451.21991241667138" y1="83.117416097247428" x2="443.67756462745541" y2="97.228156326821107" />
    <line x1="500.7824745662727" y1="56.929724063185517" x2="465.22597965301816" y2="110.14377925054842" />
    <line x1="504.09258856569977" y1="78.824910429883943" x2="485.03021082194186" y2="104.52755143726458" />
    <line x1="495.55497329251159" y1="112.74115668533554" x2="475.2543881992749" y2="137.47749119294312" />
    <line x1="549.27416997969522" y1="96.725830020304784" x2="537.96046148071036" y2="108.03953851928955" />
    <line x1="515.33304448274089" y1="130.66695551725906" x2="504.01933598375615" y2="141.98066401624382" />
    <line x1="536.3939241022282" y1="129.59102100405872" x2="524.53870609654882" y2="140.335964281611" />
    <line x1="533.25884331466443" y1="150.44502670748844" x2="520.89067606086064" y2="160.59531925410676" />
    <line x1="562.463248343133" y1="162.99577289035454" x2="549.15973454629227" y2="171.88489661866817" />
    <line x1="535.85622074945161" y1="180.77402034698181" x2="522.55270695261083" y2="189.66314407529546" />
    <line x1="597.47315520008715" y1="158.48712185816908" x2="556.302181920074" y2="183.1640535794437" />
    <line x1="591.10406436189987" y1="179.69539200489666" x2="576.99332413232628" y2="187.23773979411263" />
    <line x1="562.88258390275257" y1="194.78008758332859" x2="548.77184367317886" y2="202.32243537254456" />
    <line x1="583.34891641955164" y1="199.86413309207873" x2="568.88508772957653" y2="206.70501458696324" />
    <line x1="603.85937788343119" y1="206.66423656101267" x2="589.07730536325062" y2="212.78717147885413" />
    <line x1="574.29523284306993" y1="218.91010639669557" x2="544.73108780270877" y2="231.15597623237844" />
    <line x1="624.29410085856671" y1="215.19524691448959" x2="609.22939581563833" y2="220.58548456876511" />
    <line x1="613.90986206259151" y1="234.75345811464345" x2="583.28777131916081" y2="244.04256778678627" />
    <line x1="605.46616075613042" y1="266.81398725935503" x2="574.081031783227" y2="273.05687756387113" />
    <line x1="641.459112535103" y1="291.63451509454057" x2="593.69024565483755" y2="296.33933783035945" />
    <line x1="627" y1="323" x2="595" y2="323" />
    <line x1="579" y1="323" x2="563" y2="323" />
    <line x1="626.63381868637248" y1="337.91657299553509" x2="610.65309138708972" y2="337.13149020629641" />
    <line x1="641.459112535103" y1="354.36548490545943" x2="609.61320128159264" y2="351.22893641491345" />
    <line x1="593.69024565483755" y1="349.66066216964049" x2="577.76729002808247" y2="348.09238792436753" />
    <line x1="574.081031783227" y1="372.94312243612882" x2="558.38846729677527" y2="369.82167728387077" />
    <line x1="633.410001022254" y1="400.75365756904444" x2="586.848500868916" y2="389.0906089336878" />
    <line x1="613.90986206259151" y1="411.24654188535646" x2="598.59881669087622" y2="406.60198704928507" />
    <line x1="624.29410085856671" y1="430.80475308551036" x2="594.16469077271" y2="420.02427777695937" />
    <line x1="603.85937788343119" y1="439.33576343898727" x2="544.73108780270877" y2="414.84402376762154" />
    <line x1="583.74949744008268" y1="479.28723423473934" x2="556.302181920074" y2="462.8359464205563" />
    <line x1="549.15973454629238" y1="474.11510338133172" x2="522.552706952611" y2="456.33685592470448" />
    <line x1="580.02641007380635" y1="513.62377743757861" x2="554.32376906642571" y2="494.56139969382082" />
    <line x1="548.24914210790757" y1="527.15392227349366" x2="524.53870609654882" y2="505.664035718389" />
    <line x1="515.33304448274089" y1="515.33304448274089" x2="504.01933598375615" y2="504.01933598375615" />
    <line x1="515.85555838574828" y1="557.995177822272" x2="505.70526583912988" y2="545.62701056846822" />
    <line x1="504.09258856569977" y1="567.175089570116" x2="485.03021082194186" y2="541.47244856273539" />
    <line x1="500.7824745662727" y1="589.07027593681448" x2="483.0042271096454" y2="562.463248343133" />
    <line x1="443.67756462745547" y1="548.77184367317886" x2="436.1352168382395" y2="534.66110344360516" />
    <line x1="452.9767484028057" y1="597.81274510952676" x2="439.29498541303673" y2="568.88508772957653" />
    <line x1="439.33576343898733" y1="603.85937788343119" x2="433.21282852114587" y2="589.07730536325062" />
    <line x1="420.02427777695948" y1="594.16469077271" x2="414.63404012268393" y2="579.09998572978157" />
    <line x1="411.24654188535658" y1="613.9098620625914" x2="406.60198704928519" y2="598.59881669087622" />
    <line x1="401.95743221321379" y1="583.28777131916081" x2="392.668322541071" y2="552.66568057573011" />
    <line x1="396.86597469059228" y1="617.88950097114139" x2="392.97829181214007" y2="602.36900092002861" />
    <line x1="385.42890304516118" y1="636.85128972903374" x2="382.30745789290307" y2="621.158725242582" />
    <line x1="376.064567588387" y1="589.77359626967871" x2="372.94312243612893" y2="574.081031783227" />
    <line x1="367.60606423443" y1="623.70965902929345" x2="365.25837664314417" y2="607.88283486985688" />
    <line x1="354.36548490545948" y1="641.459112535103" x2="349.66066216964055" y2="593.69024565483755" />
    <line x1="337.91657299553503" y1="626.63381868637248" x2="336.34640741705766" y2="594.672364087807" />
    <line x1="323.00000000000006" y1="643" x2="323.00000000000006" y2="627" />
    <line x1="323.00000000000006" y1="595" x2="323.00000000000006" y2="579" />
    <line x1="308.083427004465" y1="626.63381868637248" x2="309.65359258294239" y2="594.672364087807" />
    <line x1="294.77106358508655" y1="609.61320128159264" x2="297.90761207563247" y2="577.76729002808247" />
    <line x1="278.39393576557006" y1="623.70965902929345" x2="280.74162335685588" y2="607.88283486985688" />
    <line x1="266.81398725935503" y1="605.46616075613042" x2="269.93543241161308" y2="589.77359626967871" />
    <line x1="273.05687756387113" y1="574.081031783227" x2="276.17832271612917" y2="558.38846729677527" />
    <line x1="234.75345811464354" y1="613.90986206259151" x2="239.39801295071493" y2="598.59881669087622" />
    <line x1="225.97572222304061" y1="594.16469077271" x2="231.36595987731613" y2="579.09998572978168" />
    <line x1="212.78717147885419" y1="589.07730536325062" x2="218.9101063966956" y2="574.29523284307" />
    <line x1="193.02325159719433" y1="597.81274510952676" x2="199.86413309207885" y2="583.34891641955164" />
    <line x1="179.69539200489672" y1="591.10406436189987" x2="194.78008758332865" y2="562.88258390275257" />
    <line x1="202.32243537254459" y1="548.77184367317886" x2="209.86478316176056" y2="534.66110344360527" />
    <line x1="158.4871218581691" y1="597.47315520008715" x2="174.93840967235218" y2="570.02583968007843" />
    <line x1="162.99577289035463" y1="562.463248343133" x2="180.7740203469819" y2="535.85622074945161" />
    <line x1="141.90741143430029" y1="567.175089570116" x2="151.43860030617924" y2="554.32376906642571" />
    <line x1="119.99414906763352" y1="570.3633450760758" x2="130.14444161425183" y2="557.99517782227213" />
    <line x1="140.29473416087018" y1="545.62701056846822" x2="150.4450267074885" y2="533.25884331466455" />
    <line x1="118.84607772650639" y1="548.24914210790757" x2="129.59102100405869" y2="536.3939241022282" />
    <line x1="119.35324701827432" y1="526.64675298172574" x2="141.98066401624385" y2="504.01933598375621" />
    <line x1="75.636654923924254" y1="526.00585093236668" x2="100.37298943153184" y2="505.70526583913" />
    <line x1="91.676230933574232" y1="494.5613996938207" x2="104.52755143726455" y2="485.03021082194181" />
    <line x1="110.14377925054842" y1="465.22597965301816" x2="123.44729304738914" y2="456.33685592470454" />
    <line x1="48.526844799912965" y1="487.512878141831" x2="75.974160319921651" y2="471.06159032764788" />
    <line x1="54.895935638100127" y1="466.30460799510331" x2="83.117416097247457" y2="451.21991241667138" />
    <line x1="48.1872548904733" y1="452.97674840280587" x2="62.651083580448358" y2="446.13586690792135" />
    <line x1="86.486839677110652" y1="420.96695868546311" x2="101.26891219729123" y2="414.84402376762171" />
    <line x1="21.705899141433349" y1="430.80475308551036" x2="36.770604184361673" y2="425.41451543123486" />
    <line x1="47.401183309123837" y1="406.60198704928519" x2="78.023274052554541" y2="397.3128773771424" />
    <line x1="28.110499028858612" y1="396.86597469059228" x2="59.151499131084051" y2="389.09060893368786" />
    <line x1="9.1487102709663191" y1="385.42890304516118" x2="40.533839243869693" y2="379.18601274064508" />
    <line x1="71.918968216773038" y1="372.94312243612893" x2="87.611532703224725" y2="369.82167728387088" />
    <line x1="6.4635168112700967" y1="369.95375182571593" x2="22.290340970706609" y2="367.60606423443016" />
    <line x1="52.309754345162446" y1="349.66066216964043" x2="68.232709971917586" y2="348.09238792436747" />
    <line x1="19.366181313627578" y1="337.91657299553509" x2="35.34690861291034" y2="337.13149020629641" />
    <line x1="35" y1="323.00000000000006" x2="51" y2="323.00000000000006" />
    <line x1="19.366181313627578" y1="308.083427004465" x2="35.34690861291034" y2="308.86850979370371" />
    <line x1="4.5408874648969686" y1="291.63451509454075" x2="20.463843091652109" y2="293.20278933981376" />
    <line x1="36.386798718407306" y1="294.77106358508672" x2="84.155665598672726" y2="299.4758863209056" />
    <line x1="24.841274757417978" y1="263.692542107097" x2="56.226403730321294" y2="269.93543241161308" />
    <line x1="12.58999897774595" y1="245.24634243095559" x2="28.110499028858612" y2="249.13402530940783" />
    <line x1="16.779092565693134" y1="230.10890327857214" x2="32.090137937408485" y2="234.75345811464354" />
    <line x1="36.770604184361616" y1="220.58548456876525" x2="51.83530922729" y2="225.97572222304075" />
    <line x1="42.140622116568863" y1="206.66423656101264" x2="71.704767156930046" y2="218.91010639669554" />
    <line x1="62.6510835804483" y1="199.86413309207876" x2="77.114912270423417" y2="206.70501458696327" />
    <line x1="54.89593563810007" y1="179.69539200489675" x2="97.228156326821107" y2="202.32243537254462" />
    <line x1="48.526844799912908" y1="158.4871218581691" x2="75.9741603199216" y2="174.93840967235218" />
    <line x1="70.233237860026179" y1="154.10664916204104" x2="83.5367516568669" y2="162.99577289035466" />
    <line x1="110.14377925054836" y1="180.77402034698193" x2="123.44729304738908" y2="189.66314407529555" />
    <line x1="65.97358992619354" y1="132.37622256242148" x2="78.824910429883829" y2="141.9074114343004" />
    <line x1="91.676230933574175" y1="151.43860030617933" x2="104.52755143726449" y2="160.96978917805825" />
    <line x1="88.004822177727988" y1="130.14444161425175" x2="100.37298943153178" y2="140.29473416087006" />
    <line x1="112.74115668533557" y1="150.44502670748841" x2="125.10932393913936" y2="160.59531925410673" />
    <line x1="85.895639886413079" y1="108.10113444895413" x2="97.750857892092426" y2="118.84607772650642" />
    <line x1="109.60607589777177" y1="129.59102100405872" x2="121.46129390345112" y2="140.335964281611" />
    <line x1="108.10113444895404" y1="85.895639886413164" x2="129.59102100405863" y2="109.60607589777183" />
    <line x1="130.14444161425163" y1="88.004822177728045" x2="150.4450267074883" y2="112.74115668533563" />
    <line x1="171.88489661866822" y1="96.8402654537077" x2="189.66314407529546" y2="123.44729304738914" />
    <line x1="194.78008758332857" y1="83.117416097247485" x2="202.32243537254453" y2="97.228156326821164" />
    <line x1="186.18237010230959" y1="33.723426200498182" x2="199.86413309207865" y2="62.651083580448358" />
    <line x1="212.78717147885396" y1="56.9226946367495" x2="218.91010639669543" y2="71.704767156930075" />
    <line x1="215.19524691448959" y1="21.705899141433349" x2="231.36595987731616" y2="66.900014270218321" />
    <line x1="234.75345811464339" y1="32.090137937408542" x2="239.39801295071482" y2="47.401183309123837" />
    <line x1="253.02170818785993" y1="43.630999079971332" x2="256.90939106631214" y2="59.151499131084051" />
    <line x1="294.77106358508655" y1="36.386798718407306" x2="297.90761207563253" y2="68.232709971917586" />
    <line x1="308.08342700446491" y1="19.366181313627578" x2="308.86850979370359" y2="35.34690861291034" />
  </g>
  <path fill="none" stroke="#ff0000" stroke-width="2" stroke-linecap="square" stroke-linejoin="round" d="M 311.22375816141977,562.71090948924143 L 310.83121676680042,570.7012731388827 A 248,248 0 0,0 383.25908461600949,563.5677507922469 L 387.1467674944617,579.08825084335967 A 264,264 0 0,0 393.41216797337319,577.43688136999617 L 397.67957209297157,592.85729842272315 A 280,280 0 0,1 357.27498905578057,600.89426968763883 L 361.19213066215548,632.65361479479748 A 312,312 0 0,0 376.34010929321397,630.40662442534972 L 373.60471907304918,614.64218214712662 A 296,296 0 0,0 387.8539670864335,611.8078304914045 L 391.35958692894349,627.419064572021 A 312,312 0 0,0 449.43528996955683,608.23344377950161 L 436.46756792139718,578.97873159698861 A 280,280 0 0,1 423.77061022979672,584.23798367372683 L 418.01228964523693,569.31009889237112 A 264,264 0 0,0 480.26461638600244,535.04678831089018 L 470.73342751412349,522.1954678072 A 248,248 0 0,0 522.1954678072,470.73342751412349 L 535.04678831089029,480.26461638600239 A 264,264 0 0,1 522.903135477712,495.437630539797 L 535.01847702181567,505.88839602705741 A 280,280 0 0,0 559.558998269918,472.79933356838717 L 573.07665531391331,481.35929548658072 A 296,296 0 0,1 565.00510469286883,493.43922465968222 L 578.08646170329416,502.65215572236775 A 312,312 0 0,0 614.09375323643849,435.28725139891628 L 584.23798367372683,423.77061022979672 A 280,280 0 0,0 592.85729842272315,397.67957209297151 L 577.43688136999617,393.41216797337313 A 264,264 0 0,0 584.1425986307022,361.73684525621547 L 568.31577447126574,359.38915766492971 A 248,248 0 0,0 570.7012731388827,335.16878323319969 L 586.68200043816546,335.95386602243838 A 264,264 0 0,0 585.01459713405939,290.68358174740689 L 600.89426968763883,288.72501094421943 A 280,280 0 0,0 598.87773986890352,275.13067114711561 L 614.64218214712662,272.39528092695082 A 296,296 0 0,1 616.77394224121815,286.766440141032 L 632.65361479479748,284.80786933784452 A 312,312 0 0,0 619.2527923450275,225.13129699554582 L 604.06034145553883,230.15020484192809 A 296,296 0 0,0 599.16586845508277,216.47106918564347 L 614.09375323643849,210.71274860108366 A 312,312 0 0,0 594.46714122591789,169.21576402430736 L 566.62435751043915,184.98850617566046 A 280,280 0 0,1 573.10280433474429,197.10882769671014 L 558.811215515616,204.30260897118387 A 264,264 0 0,1 561.65317338458908,210.1254553344055 L 547.189344694614,216.96633682929002 A 248,248 0 0,0 535.71669528006748,195.50251944008102 L 549.44035304007184,187.27687553298947 A 264,264 0 0,0 538.84239067201815,170.98663746568883 L 551.92374768244349,161.7737064030033 A 280,280 0 0,0 535.01847702181567,140.1116039729425 L 522.90313547771188,150.56236946020292 A 264,264 0 0,0 514.2012298991873,140.96129618941433 L 525.78918322641073,129.92864747362125 A 280,280 0 0,0 495.2648453625755,102.26300026455024 L 505.10855081186554,89.649457422524534 A 296,296 0 0,1 527.10400124217176,108.62286344636578 L 538.13664995796489,97.0349101191423 A 312,312 0 0,0 502.65215572236775,67.9135382967059 L 475.01336253431117,107.1576093279819 A 264,264 0 0,1 480.26461638600244,110.95321168910974 L 470.73342751412349,123.80453219280005 A 248,248 0 0,0 450.497480559919,110.28330471993252 L 458.72312446701051,96.559646959928159 A 264,264 0 0,1 464.23937165019368,99.958658774077321 L 472.79933356838717,86.441001730082007 A 280,280 0 0,0 461.01149382433954,79.375642489560818 L 468.89786490001609,65.454250631821424 A 296,296 0 0,1 481.35929548658078,72.9233446860867 L 489.91925740477433,59.40568764209138 A 312,312 0 0,0 420.86870300445412,26.747207654972556 L 410.83088731168959,57.132109433949722 A 280,280 0 0,0 370.86932885288434,47.122260131096425 L 368.13393863271949,62.886702409319525 A 264,264 0 0,0 316.52111566995109,59.079511864202061 L 316.12845601358453,43.084330765062816 A 280,280 0 0,0 302.40192219209314,43.758672129966726 L 301.22488917449846,27.802024823107672 A 296,296 0 0,0 244.05302378743002,37.722284524549821 L 248.3204279070284,53.142701577276853 A 280,280 0 0,0 235.16911268831038,57.132109433949722 L 225.13129699554585,26.747207654972556 A 312,312 0 0,1 315.34313670085129,11.09396856678427 L 315.73579635721791,27.089149665923571 A 296,296 0 0,1 330.26420364278204,27.089149665923571 L 330.85319312733191,3.0963780172146471" />
</svg>
