<?xml version="1.0" standalone="no"?>
<!DOCTYPE svg PUBLIC "-//W3C//DTD SVG 1.1//EN" "http://www.w3.org/Graphics/SVG/1.1/DTD/svg11.dtd">
<svg width="804" height="804" version="1.1" xmlns="http://www.w3.org/2000/svg">
  <title>50 cells diameter theta maze</title>
  <desc>50 cells diameter theta maze generated by The Maze Generator Website (https://www.mazegenerator.net/).</desc>
  <g fill="none" stroke="#000000" stroke-width="2" stroke-linecap="square">
    <path d="M 387.29834421522634,722.61454598565524 A 320,320 0 1,1 403.00000000000006,723" />
    <path d="M 386.51326142598754,67.404726715062054 A 336,336 0 0,1 403,67" />
    <path d="M 419.48673857401246,67.404726715062054 A 336,336 0 0,1 435.93375915073239,68.617931838141828" />
    <path d="M 452.30143941700157,70.636692651833584 A 336,336 0 0,1 468.55034819741911,73.456145784514547" />
    <path d="M 484.64134044749665,77.06949892663323 A 336,336 0 0,1 500.53565155749936,81.468047193977839" />
    <path d="M 531.58163327467014,92.576477076207652 A 336,336 0 0,1 561.38930357353524,106.67445517895271" />
    <path d="M 575.7385220489225,114.80318703990855 A 336,336 0 0,1 628.64380882859814,154.04042188073373" />
    <path d="M 651.95957811926633,177.35619117140183 A 336,336 0 0,1 662.73151232987959,189.84385652101511" />
    <path d="M 691.19681296009139,230.2614779510775 A 336,336 0 0,1 699.32554482104729,244.61069642646476" />
    <path d="M 706.740402489477,259.34148860742516 A 336,336 0 0,1 719.358805901495,289.80500926021409" />
    <path d="M 724.53195280602222,305.46434844250064 A 336,336 0 0,1 735.36330734816647,353.69856058299843" />
    <path d="M 738.595273284938,386.51326142598748 A 336,336 0 0,1 738.595273284938,419.48673857401246" />
    <path d="M 735.36330734816647,452.30143941700152 A 336,336 0 0,1 724.53195280602222,500.53565155749931" />
    <path d="M 719.358805901495,516.19499073978591 A 336,336 0 0,1 706.740402489477,546.65851139257472" />
    <path d="M 603.15496630945768,672.87773057749666 A 336,336 0 0,1 589.67159829458637,682.37378973365526" />
    <path d="M 561.38930357353524,699.32554482104729 A 336,336 0 0,1 500.53565155749936,724.53195280602222" />
    <path d="M 403.00000000000006,739 A 336,336 0 0,1 386.51326142598765,738.595273284938" />
    <path d="M 370.06624084926761,737.38206816185811 A 336,336 0 0,1 353.69856058299854,735.36330734816647" />
    <path d="M 305.46434844250075,724.53195280602222 A 336,336 0 0,1 289.80500926021404,719.358805901495" />
    <path d="M 259.34148860742528,706.740402489477 A 336,336 0 0,1 230.26147795107755,691.19681296009139" />
    <path d="M 216.32840170541377,682.37378973365526 A 336,336 0 0,1 143.26848767012046,616.156143478985" />
    <path d="M 133.12226942250328,603.15496630945756 A 336,336 0 0,1 106.67445517895277,561.38930357353524" />
    <path d="M 86.641194098505025,516.19499073978591 A 336,336 0 0,1 73.4561457845146,468.55034819741923" />
    <path d="M 70.636692651833641,452.30143941700175 A 336,336 0 0,1 67.404726715062054,419.48673857401246" />
    <path d="M 67.404726715062054,386.51326142598765 A 336,336 0 0,1 77.06949892663323,321.35865955250335" />
    <path d="M 81.468047193977782,305.46434844250075 A 336,336 0 0,1 86.641194098504968,289.80500926021421" />
    <path d="M 99.259597510523065,259.34148860742516 A 336,336 0 0,1 133.12226942250317,202.84503369054255" />
    <path d="M 154.04042188073373,177.35619117140183 A 336,336 0 0,1 230.26147795107744,114.80318703990861" />
    <path d="M 259.34148860742505,99.259597510523122 A 336,336 0 0,1 274.41836672532963,92.576477076207709" />
    <path d="M 289.80500926021409,86.641194098505025 A 336,336 0 0,1 321.35865955250324,77.06949892663323" />
    <path d="M 353.69856058299825,70.636692651833641 A 336,336 0 0,1 370.06624084926767,68.617931838141828" />
    <path d="M 488.52902332594886,61.54899887552051 A 352,352 0 0,1 521.58522839406146,71.5764890555767" />
    <path d="M 583.96416595601409,101.07952927990419 A 352,352 0 0,1 675.09967958368338,179.69356397439677" />
    <path d="M 685.729051081187,193.31384481866343 A 352,352 0 0,1 695.67730353049592,207.4392779771" />
    <path d="M 713.43628505062088,237.06834863724879 A 352,352 0 0,1 728.20559544397292,268.2954318074884" />
    <path d="M 734.42351094442324,284.41477160593854 A 352,352 0 0,1 748.236418701937,334.32820665032284" />
    <path d="M 751.19013150760293,351.35087299171266 A 352,352 0 0,1 754.57600058422076,385.72817863674879" />
    <path d="M 755,403 A 352,352 0 0,1 751.19013150760293,454.64912700828728" />
    <path d="M 739.84299817773751,505.1802063935707 A 352,352 0 0,1 728.20559544397292,537.7045681925116" />
    <path d="M 713.43628505062088,568.93165136275115 A 352,352 0 0,1 704.92047072009586,583.964165956014" />
    <path d="M 685.729051081187,612.68615518133652 A 352,352 0 0,1 675.09967958368338,626.30643602560315" />
    <path d="M 663.81479612494559,639.38875210615049 A 352,352 0 0,1 626.30643602560326,675.09967958368338" />
    <path d="M 583.96416595601409,704.92047072009575 A 352,352 0 0,1 553.49939288745929,721.20423117945211" />
    <path d="M 537.7045681925116,728.20559544397292 A 352,352 0 0,1 521.58522839406157,734.42351094442324" />
    <path d="M 505.18020639357076,739.84299817773751 A 352,352 0 0,1 454.64912700828734,751.19013150760293" />
    <path d="M 437.5020333960054,753.30502378861331 A 352,352 0 0,1 403.00000000000006,755" />
    <path d="M 385.72817863674896,754.57600058422076 A 352,352 0 0,1 334.32820665032284,748.236418701937" />
    <path d="M 317.47097667405114,744.45100112447949 A 352,352 0 0,1 300.81979360642936,739.84299817773763" />
    <path d="M 268.29543180748846,728.20559544397292 A 352,352 0 0,1 237.06834863724885,713.436285050621" />
    <path d="M 154.09841302233531,651.90158697766481 A 352,352 0 0,1 101.07952927990425,583.96416595601409" />
    <path d="M 84.795768820548,553.49939288745941 A 352,352 0 0,1 77.794404556027132,537.70456819251183" />
    <path d="M 66.157001822262487,505.18020639357076 A 352,352 0 0,1 54.809868492397129,454.64912700828756" />
    <path d="M 51.423999415779292,420.27182136325115 A 352,352 0 0,1 52.694976211386688,368.49796660399483" />
    <path d="M 54.809868492397129,351.35087299171261 A 352,352 0 0,1 84.795768820547949,252.50060711254068" />
    <path d="M 110.32269646950397,207.43927797710015 A 352,352 0 0,1 166.61124789384942,142.18520387505447" />
    <path d="M 179.69356397439663,130.90032041631673 A 352,352 0 0,1 207.4392779771,110.32269646950408" />
    <path d="M 222.03583404398592,101.07952927990425 A 352,352 0 0,1 252.50060711254054,84.795768820548" />
    <path d="M 268.29543180748817,77.794404556027132 A 352,352 0 0,1 334.32820665032267,57.763581298062888" />
    <path d="M 368.49796660399471,52.694976211386688 A 352,352 0 0,1 385.72817863674885,51.423999415779292" />
    <path d="M 403,35 A 368,368 0 0,1 439.0703076412783,36.772020584631548" />
    <path d="M 456.9968145995731,38.983044332960617 A 368,368 0 0,1 509.82476122964215,50.845956450547135" />
    <path d="M 526.975466048337,56.511784012648377 A 368,368 0 0,1 607.44984575121362,97.019182672663362" />
    <path d="M 663.21529547664954,142.78470452335051 A 368,368 0 0,1 698.5803715848773,183.7826559467845" />
    <path d="M 735.66805986942711,245.65972561765616 A 368,368 0 0,1 759.97150117559215,313.58329379559882" />
    <path d="M 763.92898318838888,331.20676149806479 A 368,368 0 0,1 769.22797941536851,366.92969235872164" />
    <path d="M 770.55672788350341,384.94309584751011 A 368,368 0 0,1 771,403" />
    <path d="M 770.55672788350341,421.05690415248984 A 368,368 0 0,1 763.92898318838888,474.79323850193521" />
    <path d="M 759.97150117559227,492.41670620440112 A 368,368 0 0,1 755.15404354945281,509.82476122964209" />
    <path d="M 742.98766796415362,543.82750311035306 A 368,368 0 0,1 727.5470252801947,576.47399915196718" />
    <path d="M 718.64412848010011,592.18980986310555 A 368,368 0 0,1 698.58037158487741,622.21734405321547" />
    <path d="M 675.67001413062485,650.13369538370284 A 368,368 0 0,1 663.21529547664954,663.21529547664954" />
    <path d="M 636.45672857222155,687.46784683748729 A 368,368 0 0,1 622.21734405321558,698.5803715848773" />
    <path d="M 607.44984575121362,708.98081732733669 A 368,368 0 0,1 592.18980986310567,718.64412848010011" />
    <path d="M 560.34027438234375,735.66805986942722 A 368,368 0 0,1 492.41670620440118,759.97150117559215" />
    <path d="M 421.05690415248984,770.55672788350341 A 368,368 0 0,1 384.94309584751028,770.55672788350353" />
    <path d="M 366.9296923587217,769.22797941536851 A 368,368 0 0,1 349.00318540042696,767.01695566703938" />
    <path d="M 296.17523877035796,755.15404354945281 A 368,368 0 0,1 262.17249688964705,742.98766796415362" />
    <path d="M 229.52600084803288,727.5470252801947 A 368,368 0 0,1 198.5501542487865,708.98081732733669" />
    <path d="M 183.78265594678456,698.58037158487741 A 368,368 0 0,1 142.78470452335057,663.21529547664954" />
    <path d="M 118.53215316251294,636.45672857222166 A 368,368 0 0,1 107.41962841512265,622.21734405321536" />
    <path d="M 97.019182672663362,607.44984575121362 A 368,368 0 0,1 46.028498824407848,492.41670620440118" />
    <path d="M 38.983044332960617,456.99681459957333 A 368,368 0 0,1 35.443272116496587,421.05690415248984" />
    <path d="M 35.44327211649653,384.94309584751028 A 368,368 0 0,1 36.772020584631548,366.92969235872187" />
    <path d="M 38.983044332960617,349.00318540042679 A 368,368 0 0,1 46.028498824407791,313.58329379559893" />
    <path d="M 63.0123320358465,262.17249688964688 A 368,368 0 0,1 97.019182672663248,198.55015424878653" />
    <path d="M 118.53215316251283,169.54327142777842 A 368,368 0 0,1 183.78265594678459,107.41962841512265" />
    <path d="M 198.55015424878638,97.019182672663362 A 368,368 0 0,1 213.81019013689436,87.355871519899893" />
    <path d="M 229.52600084803277,78.452974719805411 A 368,368 0 0,1 279.02453395166305,56.51178401264832" />
    <path d="M 331.20676149806462,42.07101681161123 A 368,368 0 0,1 366.92969235872175,36.772020584631548" />
    <path d="M 365.36141811344874,20.849064957876408 A 384,384 0 0,1 421.84198694172852,19.462544817213825" />
    <path d="M 440.63858188655126,20.849064957876408 A 384,384 0 0,1 459.34450219085892,23.156220173524105" />
    <path d="M 477.91468365419325,26.378452325159515 A 384,384 0 0,1 496.30438908285333,30.507998773295128" />
    <path d="M 514.46931606571354,35.534911078831783 A 384,384 0 0,1 631.74853292509442,94.568307911432385" />
    <path d="M 660.87863866125508,118.47476786369566 A 384,384 0 0,1 674.52900397563417,131.47099602436572" />
    <path d="M 699.836014091291,159.3929788811601 A 384,384 0 0,1 764.55292103028,273.63429629738749" />
    <path d="M 775.49200122670482,309.69561091714661 A 384,384 0 0,1 779.62154767484049,328.08531634580675" />
    <path d="M 785.15093504212359,365.36141811344868 A 384,384 0 0,1 786.53745518278618,384.15801305827142" />
    <path d="M 785.15093504212359,440.63858188655126 A 384,384 0 0,1 775.49200122670482,496.30438908285333" />
    <path d="M 770.46508892116822,514.46931606571343 A 384,384 0 0,1 757.76974048433408,549.95043802819441" />
    <path d="M 750.13188855940234,567.18115587722821 A 384,384 0 0,1 732.36778624010458,600.41545377019713" />
    <path d="M 711.43169208856762,631.74853292509442 A 384,384 0 0,1 687.52523213630434,660.87863866125508" />
    <path d="M 631.74853292509442,711.43169208856762 A 384,384 0 0,1 616.33896947952724,722.28433112417747" />
    <path d="M 600.41545377019713,732.36778624010446 A 384,384 0 0,1 532.36570370261256,764.55292103028" />
    <path d="M 496.30438908285339,775.49200122670482 A 384,384 0 0,1 477.91468365419337,779.62154767484049" />
    <path d="M 421.84198694172852,786.53745518278618 A 384,384 0 0,1 384.15801305827159,786.53745518278629" />
    <path d="M 346.65549780914114,782.84377982647584 A 384,384 0 0,1 291.53068393428657,770.46508892116822" />
    <path d="M 256.04956197180559,757.76974048433408 A 384,384 0 0,1 83.715668875822644,616.33896947952724" />
    <path d="M 73.632213759895535,600.41545377019725 A 384,384 0 0,1 55.868111440597829,567.18115587722855" />
    <path d="M 30.507998773295128,496.30438908285339 A 384,384 0 0,1 26.378452325159515,477.91468365419342" />
    <path d="M 23.156220173524162,459.34450219085915 A 384,384 0 0,1 19,403.00000000000006" />
    <path d="M 20.849064957876351,365.36141811344891 A 384,384 0 0,1 23.156220173524105,346.655497809141" />
    <path d="M 30.507998773295071,309.69561091714672 A 384,384 0 0,1 55.868111440597772,238.81884412277165" />
    <path d="M 64.342234490231647,221.98365305881694 A 384,384 0 0,1 83.71566887582253,189.66103052047288" />
    <path d="M 94.568307911432214,174.25146707490578 A 384,384 0 0,1 118.47476786369572,145.12136133874498" />
    <path d="M 189.66103052047274,83.715668875822644 A 384,384 0 0,1 221.9836530588168,64.3422344902317" />
    <path d="M 238.81884412277151,55.868111440597829 A 384,384 0 0,1 291.5306839342864,35.534911078831783" />
    <path d="M 422.62706973096721,3.4818175179310629 A 400,400 0 1,1 403,3" />
  </g>
  <g fill="none" stroke="#000000" stroke-width="2" stroke-linecap="butt">
    <line x1="403" y1="35" x2="403" y2="67" />
    <line x1="422.62706973096721" y1="3.4818175179310629" x2="421.84198694172852" y2="19.462544817213825" />
    <line x1="420.27182136325115" y1="51.423999415779292" x2="418.70165578477378" y2="83.385454014344816" />
    <line x1="440.63858188655126" y1="20.849064957876408" x2="437.50203339600534" y2="52.694976211386688" />
    <line x1="459.34450219085892" y1="23.156220173524105" x2="452.30143941700157" y2="70.636692651833584" />
    <line x1="474.79323850193521" y1="42.07101681161123" x2="471.67179334967716" y2="57.763581298062888" />
    <line x1="500.19207196130554" y1="14.987498722182409" x2="496.30438908285333" y2="30.507998773295128" />
    <line x1="484.64134044749665" y1="77.06949892663323" x2="480.75365756904444" y2="92.58999897774595" />
    <line x1="514.46931606571354" y1="35.534911078831783" x2="505.18020639357076" y2="66.157001822262487" />
    <line x1="516.19499073978591" y1="86.641194098505025" x2="510.80475308551041" y2="101.70589914143335" />
    <line x1="537.7045681925116" y1="77.794404556027075" x2="531.58163327467014" y2="92.576477076207652" />
    <line x1="560.34027438234375" y1="70.331940130572832" x2="553.49939288745929" y2="84.795768820547949" />
    <line x1="576.47399915196706" y1="78.452974719805354" x2="553.84695578431922" y2="120.78519540852636" />
    <line x1="631.74853292509442" y1="94.568307911432328" x2="612.68615518133652" y2="120.27094891881296" />
    <line x1="656.75731366545824" y1="93.79581865490519" x2="636.45672857222155" y2="118.53215316251277" />
    <line x1="660.87863866125508" y1="118.47476786369572" x2="639.38875210615049" y2="142.18520387505441" />
    <line x1="628.64380882859814" y1="154.04042188073373" x2="617.8988655510459" y2="165.89563988641308" />
    <line x1="651.90158697766469" y1="154.09841302233525" x2="640.58787847868" y2="165.41212152132002" />
    <line x1="699.3804501419836" y1="134.37641806119268" x2="675.670014130625" y2="155.86630461629724" />
    <line x1="675.09967958368338" y1="179.6935639743968" x2="662.73151232987971" y2="189.84385652101511" />
    <line x1="685.729051081187" y1="193.31384481866343" x2="672.87773057749666" y2="202.84503369054235" />
    <line x1="722.28433112417736" y1="189.66103052047271" x2="669.07027593681448" y2="225.21752543372728" />
    <line x1="732.36778624010446" y1="205.58454622980287" x2="704.92047072009586" y2="222.03583404398597" />
    <line x1="727.54702528019459" y1="229.52600084803279" x2="685.21480459147358" y2="252.15304421568069" />
    <line x1="742.9876679641535" y1="262.17249688964694" x2="728.20559544397292" y2="268.2954318074884" />
    <line x1="734.42351094442324" y1="284.41477160593854" x2="719.358805901495" y2="289.80500926021409" />
    <line x1="785.77613429288363" y1="286.88612909821506" x2="770.46508892116822" y2="291.53068393428646" />
    <line x1="724.53195280602222" y1="305.46434844250064" x2="709.22090743430681" y2="310.10890327857203" />
    <line x1="775.49200122670482" y1="309.69561091714661" x2="759.97150117559227" y2="313.58329379559882" />
    <line x1="763.92898318838877" y1="331.20676149806479" x2="748.236418701937" y2="334.32820665032284" />
    <line x1="798.67060398591241" y1="344.30781021785532" x2="767.01695566703938" y2="349.0031854004269" />
    <line x1="751.19013150760293" y1="351.35087299171266" x2="735.36330734816647" y2="353.69856058299843" />
    <line x1="785.15093504212359" y1="365.36141811344868" x2="769.22797941536851" y2="366.92969235872164" />
    <line x1="737.38206816185811" y1="370.06624084926756" x2="721.459112535103" y2="371.63451509454057" />
    <line x1="770.55672788350353" y1="384.94309584751011" x2="754.57600058422076" y2="385.72817863674879" />
    <line x1="803" y1="403" x2="787" y2="403" />
    <line x1="755" y1="403" x2="739" y2="403" />
    <line x1="802.51818248206894" y1="422.62706973096721" x2="770.55672788350353" y2="421.05690415248984" />
    <line x1="753.30502378861331" y1="437.50203339600534" x2="721.459112535103" y2="434.36548490545943" />
    <line x1="763.92898318838877" y1="474.79323850193521" x2="732.54385421548545" y2="468.55034819741905" />
    <line x1="775.49200122670482" y1="496.30438908285333" x2="744.45100112447949" y2="488.52902332594886" />
    <line x1="770.46508892116822" y1="514.46931606571343" x2="755.15404354945281" y2="509.82476122964209" />
    <line x1="739.84299817773763" y1="505.1802063935707" x2="724.53195280602222" y2="500.53565155749931" />
    <line x1="749.48821598735162" y1="526.9754660483369" x2="734.42351094442324" y2="521.58522839406146" />
    <line x1="719.358805901495" y1="516.19499073978591" x2="704.29410085856671" y2="510.80475308551036" />
    <line x1="757.76974048433408" y1="549.95043802819441" x2="742.9876679641535" y2="543.82750311035306" />
    <line x1="764.59571724937746" y1="574.02203737211278" x2="750.13188855940234" y2="567.18115587722821" />
    <line x1="721.20423117945211" y1="553.49939288745918" x2="706.740402489477" y2="546.65851139257472" />
    <line x1="727.5470252801947" y1="576.47399915196718" x2="699.32554482104729" y2="561.38930357353524" />
    <line x1="704.92047072009586" y1="583.96416595601409" x2="677.47315520008715" y2="567.51287814183092" />
    <line x1="735.58784492101813" y1="625.22809320784074" x2="682.37378973365526" y2="589.67159829458626" />
    <line x1="685.729051081187" y1="612.68615518133652" x2="660.02641007380635" y2="593.62377743757861" />
    <line x1="699.83601409129108" y1="646.60702111883984" x2="662.73151232987971" y2="616.15614347898486" />
    <line x1="675.67001413062485" y1="650.13369538370284" x2="651.95957811926621" y2="628.64380882859814" />
    <line x1="685.842712474619" y1="685.842712474619" x2="663.21529547664954" y2="663.21529547664954" />
    <line x1="640.58787847868" y1="640.58787847868" x2="629.27416997969522" y2="629.27416997969522" />
    <line x1="660.87863866125508" y1="687.52523213630423" x2="628.64380882859825" y2="651.95957811926621" />
    <line x1="656.75731366545824" y1="712.20418134509487" x2="636.45672857222155" y2="687.46784683748729" />
    <line x1="626.30643602560326" y1="675.09967958368338" x2="616.15614347898486" y2="662.73151232987971" />
    <line x1="622.21734405321558" y1="698.5803715848773" x2="603.15496630945768" y2="672.87773057749666" />
    <line x1="625.22809320784086" y1="735.58784492101813" x2="616.33896947952724" y2="722.28433112417747" />
    <line x1="598.5607220229" y1="695.67730353049592" x2="589.67159829458637" y2="682.37378973365526" />
    <line x1="600.41545377019713" y1="732.36778624010446" x2="575.7385220489225" y2="691.19681296009139" />
    <line x1="584.0163469411832" y1="741.6577655097683" x2="576.47399915196718" y2="727.54702528019459" />
    <line x1="561.38930357353524" y1="699.32554482104729" x2="553.84695578431933" y2="685.21480459147358" />
    <line x1="560.34027438234375" y1="735.66805986942722" x2="553.49939288745929" y2="721.20423117945211" />
    <line x1="537.7045681925116" y1="728.20559544397292" x2="531.58163327467014" y2="713.42352292379235" />
    <line x1="519.11387090178494" y1="785.77613429288351" x2="505.18020639357076" y2="739.84299817773751" />
    <line x1="484.64134044749676" y1="728.93050107336671" x2="480.75365756904449" y2="713.410001022254" />
    <line x1="477.91468365419337" y1="779.62154767484049" x2="468.55034819741923" y2="732.54385421548545" />
    <line x1="461.69218978214474" y1="798.67060398591241" x2="456.99681459957316" y2="767.01695566703938" />
    <line x1="454.64912700828734" y1="751.19013150760293" x2="452.30143941700157" y2="735.36330734816647" />
    <line x1="440.63858188655138" y1="785.15093504212359" x2="437.5020333960054" y2="753.3050237886132" />
    <line x1="435.93375915073244" y1="737.38206816185811" x2="434.36548490545948" y2="721.459112535103" />
    <line x1="421.84198694172852" y1="786.53745518278618" x2="421.05690415248984" y2="770.55672788350353" />
    <line x1="419.48673857401246" y1="738.595273284938" x2="418.70165578477372" y2="722.61454598565524" />
    <line x1="403.00000000000006" y1="755" x2="403.00000000000006" y2="739" />
    <line x1="384.94309584751028" y1="770.55672788350353" x2="385.72817863674896" y2="754.57600058422076" />
    <line x1="386.51326142598765" y1="738.595273284938" x2="387.29834421522634" y2="722.61454598565524" />
    <line x1="363.79314386817578" y1="801.07389066887879" x2="365.36141811344874" y2="785.15093504212359" />
    <line x1="346.65549780914114" y1="782.84377982647584" x2="349.00318540042696" y2="767.01695566703938" />
    <line x1="353.69856058299854" y1="735.36330734816647" x2="356.0462481742843" y2="719.5364831887299" />
    <line x1="328.08531634580675" y1="779.62154767484049" x2="337.44965180258089" y2="732.54385421548545" />
    <line x1="313.58329379559893" y1="759.97150117559227" x2="325.24634243095556" y2="713.410001022254" />
    <line x1="291.53068393428657" y1="770.46508892116822" x2="296.17523877035796" y2="755.15404354945281" />
    <line x1="268.244058643112" y1="779.61762607320838" x2="273.63429629738749" y2="764.55292103028" />
    <line x1="279.024533951663" y1="749.48821598735162" x2="289.80500926021404" y2="719.358805901495" />
    <line x1="262.172496889647" y1="742.98766796415362" x2="280.54130164317132" y2="698.64145040361177" />
    <line x1="238.81884412277179" y1="750.13188855940234" x2="245.65972561765631" y2="735.66805986942722" />
    <line x1="229.52600084803288" y1="727.5470252801947" x2="237.06834863724882" y2="713.436285050621" />
    <line x1="222.03583404398603" y1="704.92047072009586" x2="238.4871218581691" y2="677.47315520008715" />
    <line x1="198.55015424878647" y1="708.98081732733681" x2="216.32840170541374" y2="682.37378973365526" />
    <line x1="183.78265594678456" y1="698.58037158487741" x2="193.31384481866348" y2="685.729051081187" />
    <line x1="179.69356397439685" y1="675.09967958368338" x2="189.8438565210152" y2="662.73151232987971" />
    <line x1="155.86630461629721" y1="675.670014130625" x2="177.3561911714018" y2="651.95957811926633" />
    <line x1="118.47476786369577" y1="660.8786386612552" x2="142.18520387505447" y2="639.3887521061506" />
    <line x1="107.41962841512265" y1="622.21734405321536" x2="133.12226942250328" y2="603.15496630945756" />
    <line x1="83.715668875822644" y1="616.33896947952724" x2="97.019182672663362" y2="607.44984575121362" />
    <line x1="59.908555999891178" y1="608.64109767728871" x2="73.632213759895535" y2="600.41545377019713" />
    <line x1="92.563714949379062" y1="568.93165136275127" x2="106.67445517895271" y2="561.38930357353524" />
    <line x1="70.331940130572946" y1="560.340274382344" x2="99.259597510523122" y2="546.658511392575" />
    <line x1="33.4481869954854" y1="556.0733729460361" x2="48.230259515665978" y2="549.95043802819464" />
    <line x1="92.576477076207709" y1="531.58163327467037" x2="107.35854959638834" y2="525.4586983568289" />
    <line x1="41.447078969719996" y1="532.36570370261245" x2="86.641194098505025" y2="516.19499073978591" />
    <line x1="35.534911078831783" y1="514.46931606571354" x2="50.845956450547135" y2="509.82476122964215" />
    <line x1="14.987498722182409" y1="500.19207196130566" x2="30.507998773295128" y2="496.30438908285339" />
    <line x1="46.028498824407791" y1="492.41670620440118" x2="61.54899887552051" y2="488.52902332594897" />
    <line x1="26.378452325159572" y1="477.91468365419342" x2="42.07101681161123" y2="474.79323850193532" />
    <line x1="73.4561457845146" y1="468.55034819741923" x2="89.148710270966319" y2="465.42890304516118" />
    <line x1="7.3293960140876493" y1="461.69218978214491" x2="23.156220173524162" y2="459.34450219085915" />
    <line x1="38.983044332960617" y1="456.99681459957333" x2="70.636692651833641" y2="452.30143941700175" />
    <line x1="52.694976211386688" y1="437.50203339600529" x2="68.617931838141828" y2="435.93375915073233" />
    <line x1="35.44327211649653" y1="421.05690415248984" x2="51.423999415779292" y2="420.27182136325115" />
    <line x1="19" y1="403.00000000000006" x2="35" y2="403.00000000000006" />
    <line x1="51" y1="403.00000000000006" x2="67" y2="403.00000000000006" />
    <line x1="3.4818175179310629" y1="383.37293026903296" x2="35.44327211649653" y2="384.94309584751028" />
    <line x1="52.694976211386688" y1="368.49796660399483" x2="68.617931838141828" y2="370.06624084926779" />
    <line x1="23.156220173524162" y1="346.655497809141" x2="54.809868492397129" y2="351.35087299171261" />
    <line x1="10.6858878387078" y1="324.9638711935487" x2="26.378452325159515" y2="328.08531634580675" />
    <line x1="30.507998773295128" y1="309.69561091714672" x2="46.028498824407791" y2="313.58329379559893" />
    <line x1="50.845956450547135" y1="296.17523877035796" x2="66.15700182226243" y2="300.81979360642936" />
    <line x1="81.468047193977782" y1="305.46434844250075" x2="96.779092565693134" y2="310.10890327857214" />
    <line x1="41.447078969719996" y1="273.63429629738766" x2="56.51178401264832" y2="279.02453395166322" />
    <line x1="77.794404556027132" y1="268.29543180748828" x2="107.35854959638829" y2="280.54130164317121" />
    <line x1="84.795768820547949" y1="252.50060711254068" x2="99.259597510523065" y2="259.34148860742516" />
    <line x1="78.452974719805354" y1="229.52600084803288" x2="92.563714949379" y2="237.06834863724885" />
    <line x1="101.07952927990419" y1="222.03583404398603" x2="114.80318703990855" y2="230.26147795107755" />
    <line x1="83.71566887582253" y1="189.66103052047288" x2="110.32269646950402" y2="207.43927797710015" />
    <line x1="94.568307911432214" y1="174.25146707490575" x2="120.27094891881285" y2="193.31384481866363" />
    <line x1="130.90032041631662" y1="179.69356397439674" x2="155.6366549239242" y2="199.9941490676334" />
    <line x1="120.15728752538092" y1="120.15728752538104" x2="142.78470452335046" y2="142.78470452335057" />
    <line x1="145.12136133874481" y1="118.47476786369577" x2="155.86630461629713" y2="130.32998586937515" />
    <line x1="166.61124789384942" y1="142.18520387505447" x2="177.35619117140172" y2="154.04042188073382" />
    <line x1="149.24268633454162" y1="93.795818654905361" x2="159.39297888115996" y2="106.16398590870915" />
    <line x1="169.54327142777831" y1="118.53215316251288" x2="179.69356397439663" y2="130.90032041631667" />
    <line x1="174.25146707490563" y1="94.568307911432271" x2="183.78265594678456" y2="107.41962841512265" />
    <line x1="180.77190679215914" y1="70.412155078981925" x2="189.66103052047276" y2="83.715668875822644" />
    <line x1="213.81019013689433" y1="87.355871519899893" x2="222.03583404398589" y2="101.07952927990425" />
    <line x1="221.9836530588168" y1="64.34223449023176" x2="229.52600084803277" y2="78.452974719805411" />
    <line x1="237.06834863724873" y1="92.563714949379118" x2="252.15304421568067" y2="120.78519540852648" />
    <line x1="231.977962627887" y1="41.40428275062277" x2="238.81884412277151" y2="55.868111440597829" />
    <line x1="268.29543180748817" y1="77.794404556027132" x2="274.41836672532963" y2="92.576477076207709" />
    <line x1="289.80500926021409" y1="86.641194098505025" x2="295.19524691448959" y2="101.70589914143335" />
    <line x1="296.17523877035779" y1="50.845956450547135" x2="300.81979360642919" y2="66.157001822262487" />
    <line x1="305.80792803869434" y1="14.987498722182409" x2="317.47097667405103" y2="61.54899887552051" />
    <line x1="328.08531634580658" y1="26.378452325159572" x2="331.20676149806462" y2="42.07101681161123" />
    <line x1="334.32820665032267" y1="57.763581298062945" x2="340.57109695483882" y2="89.148710270966319" />
    <line x1="344.30781021785504" y1="7.3293960140876493" x2="346.65549780914085" y2="23.156220173524162" />
    <line x1="349.00318540042667" y1="38.983044332960617" x2="353.69856058299825" y2="70.636692651833641" />
    <line x1="365.36141811344874" y1="20.849064957876408" x2="366.92969235872175" y2="36.772020584631548" />
    <line x1="368.49796660399471" y1="52.694976211386688" x2="370.06624084926767" y2="68.617931838141828" />
    <line x1="384.94309584751016" y1="35.44327211649653" x2="385.72817863674885" y2="51.423999415779292" />
    <line x1="386.51326142598754" y1="67.404726715062054" x2="387.29834421522622" y2="83.385454014344816" />
  </g>
  <path fill="none" stroke="#ff0000" stroke-width="2" stroke-linecap="square" stroke-linejoin="round" d="M 395.14680687266815,722.90362198278535 L 394.95047704448484,730.901212532355 A 328,328 0 0,0 411.04952295551527,730.901212532355 L 411.44218261188183,746.89639363149422 A 344,344 0 0,0 445.10927226853045,744.41295990195624 L 443.150701465343,728.53328734837692 A 328,328 0 0,0 474.86520677145336,723.03029865263738 L 478.37082661396329,738.64153273325383 A 344,344 0 0,0 510.90651869721864,729.63769412400461 L 515.92542654360091,744.83014501349317 A 360,360 0 0,0 548.88687304179632,732.115512053271 L 542.40301201771649,717.48815596201462 A 344,344 0 0,0 572.5569781270458,702.30992494139673 L 564.67060705136919,688.38853308365731 A 328,328 0 0,0 629.169298673758,640.55304320808114 L 640.201947389551,652.14099653530457 A 344,344 0 0,0 652.14099653530457,640.201947389551 L 640.55304320808114,629.16929867375791 A 328,328 0 0,0 651.364501654127,617.2406924888387 L 687.71052628643827,648.59298895062 A 376,376 0 0,1 675.31690318975154,662.26724482113718 L 686.90485651697509,673.29989353693031 A 392,392 0 0,0 723.49324675542084,628.71681103579544 L 710.41188974499551,619.50387997310986 A 376,376 0 0,1 699.41825678760392,634.32707805831569 L 686.80471394557821,624.48337260902565 A 360,360 0 0,0 697.33053273457017,610.29094891042428 L 671.1678187137195,591.86508678505334 A 328,328 0 0,0 680.11196940190393,578.47921932296777 L 707.14728348989456,595.599143159355 A 360,360 0 0,0 716.231316799136,580.44334920272217 L 730.15270865687557,588.32972027839878 A 376,376 0 0,0 746.74286814452762,555.37073406587615 L 761.370224235784,561.854595089956 A 392,392 0 0,0 793.93785901804654,431.83730893106957 L 777.9812117111876,430.66027591347489 A 376,376 0 0,1 769.86400089448671,485.382066298983 L 738.64153273325383,478.37082661396317 A 344,344 0 0,1 734.53896663363139,494.74918857136504 L 749.95938368635836,499.01659269096336 A 360,360 0 0,1 744.83014501349317,515.92542654360091 L 760.02259590298172,520.94433438998317 A 376,376 0 0,1 753.8052923618618,538.32053373715553 L 738.877407580506,532.56221315259575 A 360,360 0 0,1 732.115512053271,548.88687304179632 L 717.48815596201462,542.40301201771649 A 344,344 0 0,0 729.63769412400461,510.90651869721864 L 714.445243234516,505.88761085083638 A 328,328 0 0,0 728.53328734837692,443.15070146534288 L 744.41295990195624,445.10927226853039 A 344,344 0 0,1 741.93550898179581,461.8108897335436 L 757.69995126001891,464.54627995370845 A 360,360 0 0,0 762.89157473063347,411.83484226824839 L 778.88675582977271,412.22750192461496 A 376,376 0 0,0 777.9812117111876,375.33972408652505 L 762.02456440432843,376.51675710411973 A 360,360 0 0,0 757.69995126001891,341.45372004629149 L 741.93550898179581,344.18911026645634 A 344,344 0 0,0 729.63769412400461,295.0934813027813 L 714.445243234516,300.11238914916356 A 328,328 0 0,0 695.977570792129,255.52748387328904 L 710.26915961125724,248.33370259881534 A 344,344 0 0,1 723.94952279915015,279.19610743196404 L 738.877407580506,273.43778684740425 A 360,360 0 0,1 754.25276681387027,324.1235535435269 L 769.86400089448671,320.61793370101697 A 376,376 0 0,1 773.46439353824189,338.71832982612671 L 789.22883581646488,335.98293960596186 A 392,392 0 0,0 780.80021779181243,298.44859906983982 L 765.37980073908534,302.7160031894382 A 376,376 0 0,0 760.02259590298172,285.05566561001677 L 775.21504679247039,280.03675776363451 A 392,392 0 0,0 699.82586783054194,146.95624556211948 L 687.71052628643815,157.40701104937992 A 376,376 0 0,1 710.41188974499551,186.49612002689014 L 697.33053273457017,195.70905108957567 A 360,360 0 0,0 651.234596105344,142.27105013747189 L 662.26724482113718,130.6830968102484 A 376,376 0 0,1 675.31690318975154,143.73275517886282 L 686.90485651697509,132.70010646306974 A 392,392 0 0,0 659.04375443788047,106.17413216945806 L 638.14222346335964,130.40481525766558 A 360,360 0 0,0 624.48337260902565,119.19528605442173 L 644.17078350760573,93.968200370370312 A 392,392 0 0,0 507.55140093016018,25.199782208187571 L 503.2839968105618,40.6201992609146 A 376,376 0 0,0 467.28167017387324,32.535606461758107 L 470.01706039403808,16.771164183535006 A 392,392 0 0,0 431.83730893106963,12.062140981953462 L 430.66027591347495,28.018788288812459 A 376,376 0 0,0 393.77249807538493,27.113244170227233 L 394.55781738811811,59.103606368505723 A 344,344 0 0,0 377.69379012171441,59.932082902530567 L 378.8708231393091,75.888730209389621 A 328,328 0 0,0 346.924500486621,79.8289332964273 L 341.45372004629138,48.300048739981207 A 360,360 0 0,0 324.12355354352673,51.747233186129733 L 317.11231385850692,20.524765024896851 A 392,392 0 0,1 335.98293960596169,16.771164183535063 L 338.71832982612653,32.535606461758107 A 376,376 0 0,1 356.97358612509476,29.82769499088505 L 355.0150153219073,13.948022437305667 A 392,392 0 0,1 412.62016158098163,11.118063071087931 L 412.81649140916494,3.1204725215183089" />
</svg>
